<?xml version="1.0" encoding="UTF-8" standalone="no"?><!DOCTYPE svg PUBLIC "-//W3C//DTD SVG 1.1//EN" "http://www.w3.org/Graphics/SVG/1.1/DTD/svg11.dtd"><svg width="100%" height="100%" viewBox="0 0 200 46" version="1.1" xmlns="http://www.w3.org/2000/svg" xmlns:xlink="http://www.w3.org/1999/xlink" xml:space="preserve" xmlns:serif="http://www.serif.com/" style="fill-rule:evenodd;clip-rule:evenodd;stroke-linejoin:round;stroke-miterlimit:2;"><g><rect x="0" y="0" width="199.999" height="46" style="fill:none;"/><g><clipPath id="_clip1"><rect x="0" y="0" width="199.999" height="46"/></clipPath><g clip-path="url(#_clip1)"><g><g><path d="M41.138,30.397c-1.405,-0 -2.485,-0.429 -3.239,-1.286c-0.754,-0.857 -1.131,-2.092 -1.131,-3.704l0,-17.107l1.89,-0l0,16.89c0,2.376 0.93,3.564 2.789,3.564c0.517,0 0.992,-0.062 1.426,-0.186l-0.062,1.643c-0.599,0.124 -1.157,0.186 -1.673,0.186Z" style="fill:#231f20;fill-rule:nonzero;"/><path d="M50.807,30.397c-1.405,-0 -2.624,-0.315 -3.657,-0.946c-1.033,-0.629 -1.833,-1.528 -2.401,-2.696c-0.57,-1.167 -0.854,-2.546 -0.854,-4.137c0,-1.57 0.284,-2.939 0.854,-4.106c0.568,-1.168 1.368,-2.072 2.401,-2.712c1.033,-0.641 2.252,-0.961 3.657,-0.961c1.425,0 2.655,0.32 3.688,0.961c1.033,0.64 1.833,1.544 2.401,2.712c0.568,1.167 0.854,2.536 0.854,4.106c-0,1.591 -0.286,2.97 -0.854,4.137c-0.568,1.168 -1.368,2.067 -2.401,2.696c-1.033,0.631 -2.263,0.946 -3.688,0.946Zm0,-1.581c1.529,0 2.748,-0.542 3.657,-1.627c0.909,-1.085 1.364,-2.608 1.364,-4.571c0,-1.963 -0.455,-3.482 -1.364,-4.556c-0.909,-1.074 -2.128,-1.611 -3.657,-1.611c-1.529,-0 -2.743,0.537 -3.642,1.611c-0.898,1.074 -1.348,2.593 -1.348,4.556c-0,1.963 0.45,3.486 1.348,4.571c0.899,1.085 2.113,1.627 3.642,1.627Z" style="fill:#231f20;fill-rule:nonzero;"/><path d="M61.158,30.149l-0,-21.849l1.89,-0l0,13.636l0.063,0l7.406,-6.818l2.511,-0l-7.903,7.252l8.647,7.779l-2.511,-0l-8.15,-7.221l-0.063,0l0,7.221l-1.89,-0Z" style="fill:#231f20;fill-rule:nonzero;"/><path d="M81.643,30.397c-2.314,-0 -4.137,-0.688 -5.469,-2.061c-1.333,-1.374 -2,-3.259 -2,-5.656c0,-1.55 0.3,-2.913 0.9,-4.091c0.598,-1.177 1.43,-2.097 2.495,-2.758c1.063,-0.661 2.287,-0.992 3.672,-0.992c2.004,0 3.564,0.651 4.68,1.953c1.115,1.301 1.673,3.088 1.673,5.361l-0,0.868l-11.56,0c0.062,1.859 0.573,3.29 1.535,4.292c0.96,1.002 2.298,1.503 4.012,1.503c0.93,0 1.804,-0.145 2.619,-0.433c0.816,-0.29 1.617,-0.775 2.402,-1.457l0.744,1.425c-0.661,0.641 -1.508,1.142 -2.541,1.504c-1.033,0.361 -2.088,0.542 -3.162,0.542Zm-0.371,-14.039c-1.571,-0 -2.795,0.491 -3.673,1.472c-0.878,0.981 -1.389,2.247 -1.534,3.797l9.824,-0c-0.041,-1.654 -0.455,-2.945 -1.24,-3.875c-0.784,-0.929 -1.91,-1.394 -3.377,-1.394Z" style="fill:#231f20;fill-rule:nonzero;"/><path d="M90.817,30.149l0,-15.031l1.859,-0l-0,2.696c0.496,-0.991 1.209,-1.736 2.139,-2.231c0.93,-0.496 1.963,-0.744 3.099,-0.744c3.574,0 5.361,1.942 5.361,5.826l0,9.484l-1.89,-0l0,-9.329c0,-1.487 -0.299,-2.582 -0.898,-3.285c-0.6,-0.702 -1.55,-1.053 -2.852,-1.053c-1.488,-0 -2.681,0.46 -3.579,1.379c-0.899,0.919 -1.349,2.154 -1.349,3.703l0,8.585l-1.89,-0Z" style="fill:#231f20;fill-rule:nonzero;"/><path d="M118.213,30.459c-1.322,-0 -2.485,-0.32 -3.486,-0.961c-1.002,-0.64 -1.782,-1.555 -2.34,-2.743c-0.558,-1.188 -0.837,-2.587 -0.837,-4.199c-0,-1.632 0.279,-3.032 0.837,-4.199c0.558,-1.167 1.338,-2.072 2.34,-2.712c1.001,-0.641 2.164,-0.961 3.486,-0.961c1.074,-0 2.046,0.238 2.913,0.713c0.869,0.475 1.52,1.105 1.953,1.89l0,-8.987l3.875,-0l-0,21.849l-3.782,-0l0,-2.511c-0.413,0.868 -1.064,1.555 -1.953,2.062c-0.888,0.506 -1.89,0.759 -3.006,0.759Zm1.085,-2.944c1.157,-0 2.087,-0.419 2.79,-1.256c0.702,-0.836 1.053,-2.071 1.053,-3.703c-0,-1.653 -0.351,-2.888 -1.053,-3.704c-0.703,-0.815 -1.633,-1.224 -2.79,-1.224c-1.157,0 -2.087,0.409 -2.789,1.224c-0.703,0.816 -1.053,2.051 -1.053,3.704c-0,1.632 0.35,2.867 1.053,3.703c0.702,0.837 1.632,1.256 2.789,1.256Z" style="fill:#231f20;fill-rule:nonzero;"/><path d="M137.522,30.459c-1.716,-0 -3.192,-0.32 -4.433,-0.961c-1.239,-0.64 -2.195,-1.549 -2.867,-2.727c-0.671,-1.178 -1.006,-2.573 -1.006,-4.184c-0,-1.57 0.325,-2.944 0.976,-4.122c0.65,-1.178 1.55,-2.102 2.696,-2.774c1.146,-0.671 2.453,-1.007 3.92,-1.007c2.149,-0 3.848,0.682 5.098,2.046c1.251,1.363 1.875,3.223 1.875,5.578l0,1.147l-10.846,-0c0.289,2.706 1.838,4.06 4.648,4.06c0.847,-0 1.694,-0.129 2.541,-0.388c0.847,-0.258 1.623,-0.666 2.325,-1.224l1.085,2.603c-0.724,0.599 -1.633,1.074 -2.727,1.426c-1.096,0.351 -2.191,0.527 -3.285,0.527Zm-0.558,-13.14c-1.136,-0 -2.056,0.351 -2.759,1.053c-0.702,0.703 -1.126,1.653 -1.27,2.851l7.623,0c-0.082,-1.26 -0.429,-2.226 -1.038,-2.898c-0.61,-0.671 -1.462,-1.006 -2.556,-1.006Z" style="fill:#231f20;fill-rule:nonzero;"/><path d="M151.468,30.459c-1.282,-0 -2.48,-0.155 -3.596,-0.465c-1.116,-0.31 -2.045,-0.754 -2.789,-1.333l0.992,-2.541c0.764,0.516 1.621,0.914 2.573,1.193c0.95,0.279 1.9,0.418 2.85,0.418c0.992,0 1.73,-0.17 2.217,-0.511c0.485,-0.341 0.727,-0.79 0.727,-1.348c0,-0.867 -0.64,-1.426 -1.921,-1.674l-3.099,-0.588c-2.624,-0.496 -3.936,-1.86 -3.936,-4.091c-0,-0.992 0.274,-1.849 0.822,-2.573c0.546,-0.722 1.307,-1.281 2.277,-1.673c0.971,-0.392 2.087,-0.589 3.348,-0.589c1.073,-0 2.106,0.15 3.099,0.449c0.991,0.3 1.839,0.75 2.541,1.349l-1.054,2.541c-0.599,-0.496 -1.317,-0.888 -2.154,-1.178c-0.836,-0.289 -1.637,-0.433 -2.402,-0.433c-1.012,-0 -1.761,0.175 -2.247,0.526c-0.485,0.351 -0.728,0.817 -0.728,1.395c0,0.909 0.588,1.467 1.767,1.673l3.099,0.589c1.343,0.248 2.36,0.703 3.053,1.364c0.691,0.661 1.038,1.549 1.038,2.665c0,1.508 -0.589,2.691 -1.767,3.549c-1.178,0.857 -2.747,1.286 -4.71,1.286Z" style="fill:#231f20;fill-rule:nonzero;"/><path d="M160.176,11.74l-0,-3.781l4.339,-0l0,3.781l-4.339,-0Zm0.247,18.409l0,-15.155l3.875,0l-0,15.155l-3.875,-0Z" style="fill:#231f20;fill-rule:nonzero;"/><path d="M174.773,36.037c-1.405,0 -2.722,-0.16 -3.951,-0.48c-1.229,-0.32 -2.309,-0.811 -3.239,-1.472l1.116,-2.696c0.867,0.578 1.797,1.007 2.789,1.285c0.991,0.28 1.983,0.419 2.974,0.419c2.769,-0 4.154,-1.332 4.154,-3.998l0,-2.076c-0.434,0.847 -1.1,1.519 -1.999,2.014c-0.899,0.496 -1.896,0.744 -2.99,0.744c-1.364,0 -2.553,-0.315 -3.564,-0.945c-1.013,-0.631 -1.799,-1.514 -2.356,-2.65c-0.558,-1.137 -0.837,-2.458 -0.837,-3.967c0,-1.508 0.279,-2.825 0.837,-3.951c0.557,-1.127 1.343,-2.004 2.356,-2.635c1.011,-0.629 2.2,-0.945 3.564,-0.945c1.136,-0 2.148,0.253 3.036,0.759c0.889,0.506 1.54,1.183 1.953,2.031l0,-2.48l3.78,0l0,13.637c0,2.458 -0.649,4.307 -1.951,5.547c-1.302,1.239 -3.193,1.859 -5.672,1.859Zm-0.093,-9.204c1.199,-0 2.149,-0.413 2.851,-1.24c0.703,-0.826 1.054,-1.952 1.054,-3.378c-0,-1.425 -0.351,-2.547 -1.054,-3.363c-0.702,-0.815 -1.652,-1.224 -2.851,-1.224c-1.198,0 -2.149,0.409 -2.852,1.224c-0.702,0.816 -1.053,1.938 -1.053,3.363c0,1.426 0.351,2.552 1.053,3.378c0.703,0.827 1.654,1.24 2.852,1.24Z" style="fill:#231f20;fill-rule:nonzero;"/><path d="M185.806,30.149l-0,-15.155l3.781,0l0,2.355c0.517,-0.867 1.213,-1.529 2.092,-1.983c0.878,-0.455 1.865,-0.682 2.959,-0.682c3.574,-0 5.362,2.076 5.362,6.229l-0,9.236l-3.874,-0l0,-9.05c0,-1.177 -0.222,-2.035 -0.666,-2.572c-0.445,-0.537 -1.131,-0.806 -2.061,-0.806c-1.136,0 -2.041,0.357 -2.712,1.07c-0.671,0.712 -1.007,1.658 -1.007,2.836l0,8.522l-3.874,-0Z" style="fill:#231f20;fill-rule:nonzero;"/></g><g><path d="M14.277,37.659l-4.079,-7.067l8.158,0l-4.079,7.067Z" style="fill:#cfaf90;fill-rule:nonzero;"/><path d="M4.079,37.659l-4.079,-7.067l8.158,0l-4.079,7.067Z" style="fill:#e6d0b7;fill-rule:nonzero;"/></g><path d="M9.178,46l-4.079,-7.067l8.158,0l-4.079,7.067Z" style="fill:#707070;fill-rule:nonzero;"/></g><rect x="0" y="20.395" width="8.158" height="8.158" style="fill:#78ace7;"/><rect x="10.198" y="20.395" width="8.158" height="8.158" style="fill:#477fc1;"/><rect x="0" y="10.198" width="8.158" height="8.158" style="fill:#78ace7;"/><rect x="10.198" y="10.198" width="8.158" height="8.158" style="fill:#477fc1;"/><rect x="0" y="0" width="8.158" height="8.158" style="fill:#78ace7;"/><rect x="10.198" y="0" width="8.158" height="8.158" style="fill:#477fc1;"/></g></g></g></svg>