<?xml version="1.0" encoding="UTF-8" standalone="no"?>
<!DOCTYPE svg PUBLIC "-//W3C//DTD SVG 1.1//EN" "http://www.w3.org/Graphics/SVG/1.1/DTD/svg11.dtd">
<svg width="100%" height="100%" viewBox="0 0 209 438" version="1.1" xmlns="http://www.w3.org/2000/svg" xmlns:xlink="http://www.w3.org/1999/xlink" xml:space="preserve" xmlns:serif="http://www.serif.com/" style="fill-rule:evenodd;clip-rule:evenodd;stroke-miterlimit:10;">
    <g transform="matrix(1,0,0,1,-1717,-59)">
        <g transform="matrix(1,0,0,1,1687.5,0)">
            <g transform="matrix(1,0,0,1,0,-15.6421)">
                <g>
                    <g transform="matrix(1,0,0,-1,135.912,90.2319)">
                        <path d="M0,-406.588C8.837,-406.588 16,-399.425 16,-390.588C16,-381.751 8.837,-374.588 0,-374.588C-8.837,-374.588 -16,-381.751 -16,-390.588C-16,-399.425 -8.837,-406.588 0,-406.588M-29.176,-27.294C-27.617,-27.294 -26.353,-26.03 -26.353,-24.47C-26.353,-22.911 -27.617,-21.647 -29.176,-21.647C-30.736,-21.647 -32,-22.911 -32,-24.47C-32,-26.03 -30.736,-27.294 -29.176,-27.294M0,-408.47C9.876,-408.47 17.882,-400.464 17.882,-390.588C17.882,-380.712 9.876,-372.706 0,-372.706C-9.876,-372.706 -17.882,-380.712 -17.882,-390.588C-17.882,-400.464 -9.876,-408.47 0,-408.47M-0.471,-12.235C1.868,-12.235 3.765,-10.339 3.765,-8C3.765,-5.661 1.868,-3.764 -0.471,-3.764C-2.81,-3.764 -4.706,-5.661 -4.706,-8C-4.706,-10.339 -2.81,-12.235 -0.471,-12.235M-16.933,-22.588C-17.457,-22.588 -17.882,-23.005 -17.882,-23.538L-17.882,-25.403C-17.882,-25.927 -17.458,-26.353 -16.942,-26.353L15.993,-26.353C16.516,-26.353 16.941,-25.935 16.941,-25.403L16.941,-23.538C16.941,-23.013 16.526,-22.588 15.992,-22.588L-16.933,-22.588ZM-102.588,-139.294L-105.588,-139.294L-105.588,-123.294L-102.588,-123.294L-102.588,-103.529L-105.588,-103.529L-105.588,-87.529L-102.588,-87.529L-102.588,-66.823L-105.588,-66.823L-105.588,-47.059L-102.588,-47.059L-102.588,-16.946C-102.588,-0.314 -89.108,13.177 -72.479,13.177L34.824,13.177L34.824,15.059L68.706,15.059L68.706,13.177L72.479,13.177C89.106,13.177 102.588,-0.31 102.588,-16.946L102.588,-391.524C102.588,-408.157 89.108,-421.647 72.479,-421.647L-72.479,-421.647C-89.106,-421.647 -102.588,-408.16 -102.588,-391.524L-102.588,-139.294Z" style="fill-rule:nonzero;"/>
                    </g>
                    <g transform="matrix(-1,0,0,-1,136.998,296.192)">
                        <rect x="-89.001" y="-158.417" width="180" height="319.5" style="fill:white;"/>
                    </g>
                    <g transform="matrix(1,0,0,-1,135,-8.30795)">
                        <rect x="-89.001" y="-158.417" width="180" height="15" style="fill:white;"/>
                    </g>
                    <g transform="matrix(1,0,0,-1,204.124,145.047)">
                        <path d="M0,4.875L0,0C0,-0.207 0.168,-0.375 0.375,-0.375L15,-0.375C15.207,-0.375 15.375,-0.207 15.375,0L15.375,4.875C15.375,5.082 15.207,5.25 15,5.25L0.375,5.25C0.168,5.25 0,5.082 0,4.875M0.375,5.625C-0.039,5.625 -0.375,5.289 -0.375,4.875L-0.375,0C-0.375,-0.414 -0.039,-0.75 0.375,-0.75L15,-0.75C15.414,-0.75 15.75,-0.414 15.75,0L15.75,4.875C15.75,5.289 15.414,5.625 15,5.625L0.375,5.625ZM16.125,4.875L16.125,-0.006C16.125,-0.628 15.621,-1.125 15,-1.125L0.375,-1.125C-0.246,-1.125 -0.75,-0.628 -0.75,-0.006L-0.75,4.875C-0.75,5.496 -0.246,6 0.375,6L15,6C15.621,6 16.125,5.496 16.125,4.875M17.625,2.437C17.625,1.712 17.225,1.125 16.5,1.125L16.5,3.75C17.225,3.75 17.625,3.163 17.625,2.437"/>
                    </g>
                    <g transform="matrix(1,0,0,-1,181.954,144.856)">
                        <path d="M0,4.376L-0.018,4.376L-1.035,3.827L-1.188,4.43L0.09,5.114L0.765,5.114L0.765,-0.738L0,-0.738L0,4.376Z" style="fill-rule:nonzero;"/>
                    </g>
                    <g transform="matrix(1,0,0,-1,185.562,142.641)">
                        <path d="M0,-0.054C0,-1.575 0.468,-2.44 1.188,-2.44C1.999,-2.44 2.386,-1.494 2.386,-0C2.386,1.44 2.017,2.385 1.197,2.385C0.504,2.385 0,1.539 0,-0.054M3.178,0.036C3.178,-1.953 2.44,-3.052 1.144,-3.052C0,-3.052 -0.774,-1.981 -0.792,-0.045C-0.792,1.918 0.054,2.998 1.243,2.998C2.476,2.998 3.178,1.9 3.178,0.036" style="fill-rule:nonzero;"/>
                    </g>
                    <g transform="matrix(1,0,0,-1,190.179,142.641)">
                        <path d="M0,-0.054C0,-1.575 0.468,-2.44 1.188,-2.44C1.999,-2.44 2.386,-1.494 2.386,-0C2.386,1.44 2.017,2.385 1.197,2.385C0.504,2.385 0,1.539 0,-0.054M3.178,0.036C3.178,-1.953 2.44,-3.052 1.144,-3.052C0,-3.052 -0.774,-1.981 -0.792,-0.045C-0.792,1.918 0.054,2.998 1.243,2.998C2.476,2.998 3.178,1.9 3.178,0.036" style="fill-rule:nonzero;"/>
                    </g>
                    <g transform="matrix(1,0,0,-1,198.388,141.471)">
                        <path d="M0,-2.394C-0.009,-3.141 0.279,-3.708 0.765,-3.708C1.287,-3.708 1.521,-3.15 1.521,-2.376C1.521,-1.665 1.314,-1.071 0.765,-1.071C0.27,-1.071 0,-1.656 0,-2.394M2.143,-2.34C2.143,-3.573 1.494,-4.186 0.747,-4.186C0.018,-4.186 -0.612,-3.601 -0.621,-2.43C-0.621,-1.25 0.018,-0.594 0.792,-0.594C1.611,-0.594 2.143,-1.224 2.143,-2.34M-3.124,-4.222L0.315,1.828L0.819,1.828L-2.62,-4.222L-3.124,-4.222ZM-3.808,0.028C-3.826,-0.72 -3.547,-1.287 -3.052,-1.287C-2.53,-1.287 -2.296,-0.728 -2.296,0.046C-2.296,0.757 -2.503,1.351 -3.052,1.351C-3.547,1.351 -3.808,0.766 -3.808,0.028M-1.666,0.082C-1.666,-1.152 -2.314,-1.764 -3.07,-1.764C-3.799,-1.764 -4.429,-1.179 -4.438,0.001C-4.438,1.171 -3.799,1.828 -3.025,1.828C-2.206,1.828 -1.666,1.198 -1.666,0.082" style="fill-rule:nonzero;"/>
                    </g>
                    <g transform="matrix(1,0,0,-1,120.469,143.667)">
                        <path d="M0,1.999C0,1.27 0.441,0.756 1.125,0.756C1.657,0.756 2.071,1.018 2.278,1.369C2.323,1.441 2.35,1.531 2.35,1.657C2.35,2.656 1.98,3.421 1.152,3.421C0.477,3.421 0,2.827 0,1.999M-0.288,-1.368C-0.117,-1.386 0.081,-1.368 0.351,-1.341C0.81,-1.278 1.242,-1.089 1.576,-0.774C1.962,-0.423 2.242,0.09 2.35,0.784L2.323,0.784C1.999,0.387 1.53,0.153 0.945,0.153C-0.108,0.153 -0.783,0.946 -0.783,1.945C-0.783,3.052 0.018,4.024 1.215,4.024C2.413,4.024 3.151,3.052 3.151,1.558C3.151,0.27 2.719,-0.63 2.143,-1.188C1.692,-1.629 1.071,-1.899 0.441,-1.971C0.153,-2.016 -0.099,-2.025 -0.288,-2.016L-0.288,-1.368Z" style="fill-rule:nonzero;"/>
                    </g>
                    <g transform="matrix(1,0,0,-1,124.402,141.948)">
                        <path d="M0,-3.187C0,-2.854 0.225,-2.62 0.54,-2.62C0.855,-2.62 1.062,-2.854 1.071,-3.187C1.071,-3.502 0.864,-3.745 0.531,-3.745C0.216,-3.745 0,-3.502 0,-3.187M0,-0.009C0,0.324 0.225,0.558 0.54,0.558C0.855,0.558 1.062,0.324 1.071,-0.009C1.071,-0.324 0.864,-0.567 0.531,-0.567C0.216,-0.567 0,-0.324 0,-0.009" style="fill-rule:nonzero;"/>
                    </g>
                    <g transform="matrix(1,0,0,-1,128.651,141.957)">
                        <path d="M0,-1.422L0,0.532C0,0.837 0.009,1.143 0.027,1.45L0,1.45C-0.18,1.108 -0.324,0.855 -0.486,0.585L-1.917,-1.404L-1.917,-1.422L0,-1.422ZM0,-3.637L0,-2.044L-2.719,-2.044L-2.719,-1.521L-0.108,2.215L0.747,2.215L0.747,-1.422L1.566,-1.422L1.566,-2.044L0.747,-2.044L0.747,-3.637L0,-3.637Z" style="fill-rule:nonzero;"/>
                    </g>
                    <g transform="matrix(1,0,0,-1,132.538,144.856)">
                        <path d="M0,4.376L-0.018,4.376L-1.035,3.827L-1.188,4.43L0.09,5.114L0.765,5.114L0.765,-0.738L0,-0.738L0,4.376Z" style="fill-rule:nonzero;"/>
                    </g>
                    <g transform="matrix(1,0,0,-1,140.593,142.047)">
                        <path d="M0,-1.026L-0.594,0.72C-0.729,1.117 -0.819,1.476 -0.91,1.828L-0.927,1.828C-1.018,1.468 -1.117,1.099 -1.233,0.729L-1.828,-1.026L0,-1.026ZM-1.99,-1.638L-2.62,-3.547L-3.43,-3.547L-1.369,2.521L-0.423,2.521L1.647,-3.547L0.81,-3.547L0.162,-1.638L-1.99,-1.638Z" style="fill-rule:nonzero;"/>
                    </g>
                    <g transform="matrix(1,0,0,-1,148.208,142.191)">
                        <path d="M0,-0.738C-0.045,0.109 -0.099,1.126 -0.09,1.882L-0.117,1.882C-0.324,1.171 -0.576,0.414 -0.882,-0.423L-1.954,-3.366L-2.548,-3.366L-3.529,-0.477C-3.817,0.379 -4.061,1.162 -4.231,1.882L-4.25,1.882C-4.268,1.126 -4.312,0.109 -4.366,-0.801L-4.528,-3.403L-5.276,-3.403L-4.853,2.665L-3.854,2.665L-2.818,-0.27C-2.566,-1.017 -2.359,-1.683 -2.206,-2.313L-2.179,-2.313C-2.026,-1.701 -1.81,-1.035 -1.54,-0.27L-0.459,2.665L0.54,2.665L0.918,-3.403L0.153,-3.403L0,-0.738Z" style="fill-rule:nonzero;"/>
                    </g>
                    <g transform="matrix(1,0,0,-1,84.4332,141.17)">
                        <path d="M0,-2.504C0.5,-2.504 1.009,-2.688 1.443,-3.025L0,-4.627L-1.442,-3.023C-1.008,-2.688 -0.5,-2.504 0,-2.504M0,-0.206C1.066,-0.206 2.122,-0.599 2.984,-1.314L2.343,-2.026C1.681,-1.49 0.853,-1.196 0,-1.196C-0.851,-1.196 -1.679,-1.489 -2.341,-2.023L-2.981,-1.311C-2.119,-0.598 -1.065,-0.206 0,-0.206M0,2.123C1.58,2.123 3.175,1.502 4.503,0.372L3.904,-0.293C2.81,0.627 1.427,1.133 0,1.133C-1.427,1.133 -2.807,0.629 -3.899,-0.288L-4.497,0.376C-3.172,1.504 -1.578,2.123 0,2.123" style="fill-rule:nonzero;"/>
                    </g>
                    <g transform="matrix(1,0,0,-1,58.5612,144.672)">
                        <path d="M0,4.125C-1.139,4.125 -2.063,3.201 -2.063,2.062C-2.063,0.924 -1.139,0 0,0C1.14,0 2.063,0.924 2.063,2.062C2.063,3.201 1.14,4.125 0,4.125M5.25,4.125C4.111,4.125 3.188,3.201 3.188,2.062C3.188,0.924 4.111,0 5.25,0C6.39,0 7.312,0.924 7.312,2.062C7.312,3.201 6.39,4.125 5.25,4.125M10.5,4.125C9.361,4.125 8.438,3.201 8.438,2.062C8.438,0.924 9.361,0 10.5,0C11.64,0 12.562,0.924 12.562,2.062C12.562,3.201 11.64,4.125 10.5,4.125M15.75,4.125C14.611,4.125 13.687,3.201 13.687,2.062C13.687,0.924 14.611,0 15.75,0C16.89,0 17.812,0.924 17.812,2.062C17.812,3.201 16.89,4.125 15.75,4.125M-5.25,4.125C-4.11,4.125 -3.188,3.201 -3.188,2.062C-3.188,0.924 -4.11,0 -5.25,0C-6.389,0 -7.313,0.924 -7.313,2.062C-7.313,3.201 -6.389,4.125 -5.25,4.125"/>
                    </g>
                </g>
                <g transform="matrix(-1,0,0,-1,137.086,334.62)">
                    <rect x="-88.913" y="-119.989" width="180" height="304.5" style="fill:rgb(234,236,237);"/>
                </g>
                <g transform="matrix(1.05263,0,0,1.05263,-1791.37,18.5312)">
                    <rect x="1793" y="125" width="76" height="38" style="fill:white;"/>
                </g>
                <g transform="matrix(1,0,0,-1,148.878,165.831)">
                    <path d="M0,-8.556L-2.509,-8.556L-3.102,-11.389C-3.167,-11.704 -3.259,-12.167 -3.333,-12.5L-3.37,-12.5C-3.444,-12.186 -3.565,-11.723 -3.657,-11.38L-4.426,-8.565L-7.037,-8.565L-4.685,-14.287C-4.611,-14.436 -4.593,-14.547 -4.593,-14.621C-4.593,-14.713 -4.648,-14.815 -4.713,-14.899C-4.87,-15.102 -5.167,-15.362 -5.472,-15.473C-5.759,-15.602 -6.046,-15.676 -6.287,-15.713L-5.806,-17.649C-5.204,-17.584 -4.407,-17.371 -3.657,-16.732C-2.963,-16.13 -2.333,-15.176 -1.37,-12.556L0,-8.556ZM-7.583,-8.445C-7.75,-8.408 -7.843,-8.408 -8.056,-8.408C-8.62,-8.408 -9.426,-8.732 -9.769,-9.713L-9.824,-9.713L-9.917,-8.547L-11.926,-8.547C-11.889,-9.084 -11.87,-9.695 -11.87,-10.713L-11.87,-14.973L-9.5,-14.973L-9.5,-11.797C-9.5,-11.639 -9.491,-11.5 -9.472,-11.389C-9.343,-10.871 -8.87,-10.575 -8.176,-10.575C-7.926,-10.575 -7.741,-10.602 -7.574,-10.639L-7.574,-8.445L-7.583,-8.445ZM-13.222,-14.991C-13.287,-14.667 -13.324,-14.065 -13.324,-13.426L-13.324,-11.26C-13.324,-9.649 -14.083,-8.426 -16.296,-8.426C-17.63,-8.426 -18.556,-8.797 -18.963,-9.019L-18.556,-10.5C-18.12,-10.269 -17.417,-10.028 -16.741,-10.028C-15.88,-10.028 -15.685,-10.315 -15.685,-10.575L-15.685,-10.63C-17.87,-10.63 -19.426,-11.399 -19.426,-13.13C-19.426,-14.204 -18.611,-15.158 -17.296,-15.158C-16.602,-15.158 -15.963,-14.963 -15.519,-14.454L-15.463,-14.454L-15.343,-15.019L-13.222,-15.019L-13.222,-14.991ZM-20.435,-8.556L-22.463,-8.556L-22.537,-9.241L-22.565,-9.241C-22.907,-8.713 -23.444,-8.408 -24.222,-8.408C-25.833,-8.408 -27.139,-9.741 -27.139,-11.76C-27.139,-13.612 -26,-14.862 -24.435,-14.862C-23.796,-14.862 -23.222,-14.63 -22.824,-14.149L-22.796,-14.149L-22.796,-14.436C-22.796,-15.426 -23.454,-15.88 -24.287,-15.88C-25.019,-15.88 -25.75,-15.63 -26.148,-15.417L-26.593,-17.186C-25.991,-17.5 -25.093,-17.667 -24.204,-17.667C-23.213,-17.667 -22.231,-17.5 -21.5,-16.88C-20.713,-16.204 -20.491,-15.139 -20.491,-14.028L-20.491,-10.547C-20.491,-9.5 -20.463,-8.954 -20.435,-8.556M-28.287,-5.926L-30.657,-5.926L-30.657,-14.982L-28.287,-14.982L-28.287,-5.926ZM-32,-14.991C-32.065,-14.667 -32.102,-14.065 -32.102,-13.426L-32.102,-11.26C-32.102,-9.649 -32.861,-8.426 -35.074,-8.426C-36.407,-8.426 -37.333,-8.797 -37.741,-9.019L-37.333,-10.5C-36.898,-10.269 -36.194,-10.028 -35.519,-10.028C-34.657,-10.028 -34.463,-10.315 -34.463,-10.575L-34.463,-10.63C-36.648,-10.63 -38.204,-11.399 -38.204,-13.13C-38.204,-14.204 -37.389,-15.158 -36.074,-15.158C-35.38,-15.158 -34.741,-14.963 -34.296,-14.454L-34.241,-14.454L-34.12,-15.019L-32,-15.019L-32,-14.991ZM-44.241,-10.5C-44.241,-8.732 -42.917,-7.917 -41.426,-7.917C-40.593,-7.917 -39.935,-8.102 -39.481,-8.287L-38.963,-6.352C-39.398,-6.112 -40.361,-5.899 -41.519,-5.899C-44.444,-5.899 -46.88,-7.565 -46.88,-10.658C-46.88,-13.056 -45.269,-15.13 -41.657,-15.13C-40.444,-15.13 -39.491,-14.889 -39.12,-14.704L-39.5,-12.787C-39.926,-12.963 -40.676,-13.093 -41.361,-13.093C-43.194,-13.112 -44.241,-12.037 -44.241,-10.5M6.009,-24.278L-52.88,-24.278L-52.88,15.722L6.009,15.722L6.009,-24.278ZM-17.102,-12.88C-17.102,-13.287 -16.843,-13.491 -16.435,-13.491C-16.093,-13.491 -15.741,-13.26 -15.62,-12.889C-15.593,-12.797 -15.593,-12.676 -15.593,-12.565L-15.593,-12.037C-16.565,-12.047 -17.102,-12.306 -17.102,-12.88M-23.713,-10.158C-24.278,-10.158 -24.759,-10.704 -24.759,-11.713C-24.759,-12.547 -24.37,-13.158 -23.713,-13.158C-23.278,-13.158 -22.972,-12.871 -22.889,-12.519C-22.852,-12.389 -22.852,-12.186 -22.852,-12.037L-22.852,-11.186C-22.852,-11.084 -22.861,-10.982 -22.88,-10.889C-22.972,-10.417 -23.278,-10.158 -23.713,-10.158M-34.38,-12.047L-34.38,-12.575C-34.38,-12.695 -34.38,-12.806 -34.407,-12.899C-34.528,-13.269 -34.88,-13.5 -35.222,-13.5C-35.63,-13.5 -35.889,-13.287 -35.889,-12.889C-35.88,-12.306 -35.343,-12.047 -34.38,-12.047" style="fill:rgb(207,10,44);fill-rule:nonzero;"/>
                </g>
                <g transform="matrix(1,0,0,1,4.5007,-39.3421)">
                    <g transform="matrix(12,0,0,12,189.356,259.687)">
                    </g>
                    <text x="73.641px" y="259.687px" style="font-family:'Roboto-Regular', 'Roboto';font-size:12px;fill:rgb(92,102,112);">W<tspan x="84.093px " y="259.687px ">a</tspan>ter Meter Manager</text>
                </g>
                <g transform="matrix(1,0,0,-1,173.378,163.666)">
                    <path d="M0,-12.888L0,-12.962C0,-12.971 -0.009,-12.981 -0.019,-12.981C-0.028,-12.981 -0.037,-12.971 -0.037,-12.962C-0.065,-12.86 -0.111,-12.758 -0.176,-12.657C-0.176,-12.657 -0.213,-12.592 -0.426,-12.351C-0.454,-12.323 -0.463,-12.305 -0.463,-12.305C-0.481,-12.277 -0.491,-12.231 -0.491,-12.194C-0.491,-12.147 -0.481,-12.11 -0.454,-12.082C-0.509,-11.916 -0.602,-11.805 -0.602,-11.805C-0.667,-11.721 -0.75,-11.657 -0.833,-11.629C-0.87,-11.619 -0.954,-11.601 -1.009,-11.638C-1.065,-11.684 -1.065,-11.758 -1.065,-11.805C-1.056,-11.888 -1.019,-11.99 -0.954,-12.073C-0.926,-12.11 -0.889,-12.147 -0.852,-12.175C-0.843,-12.184 -0.694,-12.295 -0.556,-12.388C-0.454,-12.462 -0.315,-12.601 -0.25,-12.712C-0.157,-12.86 -0.12,-12.99 -0.12,-13.101C-0.12,-13.221 -0.176,-13.332 -0.278,-13.434C-0.324,-13.481 -0.389,-13.527 -0.454,-13.564C-0.426,-13.74 -0.444,-13.971 -0.5,-14.212C-0.546,-14.388 -0.602,-14.545 -0.676,-14.675L-0.87,-14.999C-0.944,-15.138 -0.87,-15.268 -0.843,-15.323C-0.815,-15.379 -0.843,-15.425 -0.843,-15.425C-0.843,-15.425 -0.898,-15.61 -0.935,-15.944C-0.972,-16.286 -1.019,-16.582 -1.019,-16.582C-1.028,-16.61 -1.037,-16.61 -1.056,-16.629C-1.074,-16.647 -1.083,-16.684 -1.083,-16.684L-1.102,-16.832C-1.111,-16.851 -1.13,-16.869 -1.148,-16.879C-1.204,-16.897 -1.278,-16.916 -1.352,-16.916C-1.472,-16.916 -1.583,-16.879 -1.639,-16.832C-1.657,-16.814 -1.667,-16.786 -1.667,-16.758C-1.667,-16.74 -1.657,-16.731 -1.657,-16.712C-1.648,-16.703 -1.639,-16.684 -1.639,-16.684C-1.463,-16.49 -1.296,-16.295 -1.231,-15.944C-1.185,-15.666 -1.25,-15.527 -1.593,-15.092C-1.935,-14.657 -1.815,-14.231 -1.815,-14.231C-1.824,-14.249 -1.889,-14.342 -1.981,-14.416C-2.074,-14.49 -2.12,-14.61 -2.12,-14.61C-2.13,-14.647 -2.139,-14.684 -2.148,-14.721C-2.157,-14.832 -2.139,-14.934 -2.083,-14.99C-2.083,-14.99 -2.056,-15.018 -2.037,-15.036C-2.019,-15.055 -2,-15.073 -2,-15.101C-2,-15.119 -2.009,-15.129 -2.009,-15.147C-2.019,-15.157 -2.037,-15.175 -2.037,-15.175C-2.056,-15.203 -2.093,-15.231 -2.139,-15.24L-2.185,-15.249C-2.333,-15.295 -2.861,-15.416 -2.861,-15.416L-2.889,-15.416C-2.917,-15.416 -2.944,-15.425 -2.963,-15.434C-3.019,-15.453 -3.046,-15.508 -3.046,-15.564L-3.056,-15.712C-3.139,-15.749 -3.25,-15.768 -3.37,-15.768C-3.519,-15.768 -3.648,-15.74 -3.731,-15.694C-3.704,-15.601 -3.611,-15.499 -3.481,-15.416L-3.407,-15.369C-3.38,-15.342 -3.361,-15.314 -3.361,-15.277C-3.361,-15.184 -3.278,-15.101 -3.176,-15.101L-3.083,-15.101L-2.694,-15.055C-2.676,-15.055 -2.667,-15.036 -2.667,-15.018C-2.667,-15.008 -2.676,-14.999 -2.676,-14.99L-3.176,-14.536C-3.222,-14.481 -3.259,-14.379 -3.259,-14.258C-3.259,-14.138 -3.222,-14.036 -3.176,-13.981L-2.806,-13.555C-3.315,-13.258 -3.694,-12.768 -3.824,-12.175C-3.898,-12.166 -3.972,-12.147 -4.056,-12.129C-4.13,-12.11 -4.204,-12.082 -4.269,-12.055L-4.278,-12.055C-4.296,-12.055 -4.315,-12.073 -4.315,-12.092C-4.315,-12.092 -4.315,-12.212 -4.25,-12.286C-4.25,-12.286 -4.222,-12.323 -4.231,-12.369L-4.231,-12.471C-4.231,-12.518 -4.204,-12.545 -4.167,-12.555L-4.083,-12.573C-4.065,-12.573 -4.046,-12.592 -4.046,-12.61C-4.046,-12.712 -4.056,-13.018 -4.176,-13.138C-4.185,-13.147 -4.194,-13.147 -4.204,-13.147C-4.213,-13.147 -4.222,-13.147 -4.222,-13.138C-4.222,-13.138 -4.435,-13.008 -4.481,-12.832L-4.731,-11.86C-4.731,-11.851 -4.741,-11.832 -4.741,-11.823L-4.741,-11.814C-4.741,-11.749 -4.704,-11.684 -4.63,-11.647C-4.537,-11.601 -4.417,-11.564 -4.296,-11.545C-4.241,-11.536 -4.185,-11.536 -4.13,-11.536C-4.315,-11.434 -4.583,-11.379 -4.583,-11.379L-4.519,-11.184C-4.509,-11.147 -4.509,-11.11 -4.537,-11.082L-4.639,-10.953C-4.639,-10.953 -4.491,-10.971 -4.306,-10.999L-3.611,-11.138C-3.593,-11.138 -3.565,-11.147 -3.546,-11.147C-3.481,-11.147 -3.417,-11.129 -3.361,-11.092L-3.167,-10.962C-3.13,-10.944 -3.12,-10.897 -3.148,-10.86C-3.167,-10.823 -3.213,-10.814 -3.25,-10.842L-3.444,-10.971C-3.481,-10.999 -3.537,-11.008 -3.583,-10.999L-3.778,-10.962L-3.843,-10.832C-3.852,-10.814 -3.852,-10.795 -3.852,-10.777C-3.852,-10.758 -3.852,-10.749 -3.843,-10.74C-3.843,-10.731 -3.787,-10.619 -3.787,-10.619L-3.759,-10.332L-3.815,-10.203C-3.824,-10.175 -3.815,-10.157 -3.815,-10.157C-3.815,-10.157 -3.75,-10.027 -3.713,-9.925C-3.676,-9.823 -3.667,-9.74 -3.667,-9.74C-3.667,-9.721 -3.685,-9.703 -3.704,-9.703L-3.713,-9.703C-4.12,-9.758 -4.398,-9.934 -4.417,-9.944L-4.444,-9.962L-4.463,-9.962C-4.472,-9.953 -4.472,-9.944 -4.472,-9.934L-4.463,-9.916C-4.324,-9.657 -3.926,-9.453 -3.417,-9.379C-3.398,-9.369 -3.38,-9.36 -3.361,-9.36C-3.287,-9.351 -3.204,-9.351 -3.12,-9.351C-3.056,-9.351 -3,-9.351 -2.944,-9.36C-2.917,-9.36 -2.889,-9.369 -2.861,-9.388C-2.75,-9.407 -2.639,-9.444 -2.546,-9.508C-2.269,-9.684 -2.167,-9.832 -2.102,-10.045C-2.102,-10.055 -2.102,-10.064 -2.111,-10.073C-2.12,-10.082 -2.13,-10.082 -2.139,-10.073L-2.148,-10.064L-2.463,-9.842C-2.472,-9.832 -2.481,-9.832 -2.491,-9.842C-2.5,-9.851 -2.5,-9.86 -2.491,-9.869C-2.491,-9.879 -2.481,-9.879 -2.481,-9.888C-2.389,-10.008 -2.333,-10.119 -2.361,-10.147C-2.241,-10.295 -2.139,-10.555 -2.139,-10.555C-2.065,-10.749 -1.981,-11.036 -1.889,-11.462C-1.63,-12.666 -1.389,-12.731 -0.991,-12.999C-0.778,-13.147 -0.667,-13.231 -0.62,-13.286C-0.583,-13.332 -0.574,-13.351 -0.574,-13.36C-0.574,-13.369 -0.565,-13.379 -0.556,-13.379L-0.546,-13.379C-0.509,-13.36 -0.472,-13.332 -0.426,-13.295C-0.361,-13.24 -0.333,-13.175 -0.333,-13.11C-0.333,-13.036 -0.361,-12.944 -0.435,-12.832C-0.491,-12.749 -0.593,-12.629 -0.676,-12.573C-0.824,-12.471 -0.981,-12.36 -0.981,-12.36C-1.037,-12.323 -1.083,-12.268 -1.13,-12.212C-1.222,-12.092 -1.278,-11.962 -1.278,-11.832C-1.287,-11.694 -1.231,-11.564 -1.139,-11.49C-1.046,-11.416 -0.907,-11.397 -0.778,-11.444C-0.657,-11.481 -0.537,-11.573 -0.444,-11.684C-0.435,-11.703 -0.333,-11.823 -0.268,-12.008C-0.167,-11.99 -0.056,-12.073 0,-12.212C0.009,-12.24 0.019,-12.277 0.019,-12.305L0.019,-12.462C0.019,-12.518 0.028,-12.564 0.037,-12.601C0.019,-12.61 0,-12.619 -0.018,-12.619C-0.028,-12.619 -0.037,-12.619 -0.046,-12.61C-0.019,-12.694 0,-12.786 0,-12.888M-1.019,-17.916C-1.046,-17.999 -1.157,-18.203 -1.583,-18.286C-2.13,-18.397 -2.713,-18.166 -2.713,-18.166L-2.639,-18.073C-2.852,-18.11 -3.019,-18.018 -3.019,-18.018L-2.972,-17.99C-2.944,-17.971 -2.935,-17.934 -2.954,-17.907C-2.963,-17.888 -2.981,-17.888 -2.991,-17.879C-3.046,-17.869 -3.13,-17.86 -3.13,-17.86C-3.37,-17.851 -3.454,-17.712 -3.454,-17.712C-3.472,-17.684 -3.546,-17.564 -3.546,-17.564C-3.148,-17.444 -2.926,-17.425 -2.926,-17.425C-2.231,-18.194 -1.731,-18.073 -1.731,-18.073C-2.278,-18.008 -2.704,-17.397 -2.704,-17.397C-2.704,-17.397 -2.472,-17.369 -2.231,-17.407C-2.231,-17.407 -1.685,-17.944 -1.38,-17.842C-1.287,-17.814 -1.259,-17.749 -1.259,-17.694C-1.287,-17.703 -1.324,-17.712 -1.352,-17.712C-1.481,-17.712 -1.583,-17.629 -1.583,-17.527C-1.583,-17.425 -1.481,-17.342 -1.352,-17.342C-1.333,-17.342 -1.296,-17.342 -1.278,-17.351C-1.241,-17.36 -1.204,-17.369 -1.167,-17.388C-1.065,-17.444 -1,-17.573 -1,-17.731C-0.991,-17.805 -1,-17.869 -1.019,-17.916M-5.75,-20.777C-5.759,-20.795 -5.778,-20.805 -5.796,-20.805C-5.824,-20.805 -5.852,-20.777 -5.852,-20.749C-5.852,-20.444 -6.167,-20.203 -6.167,-20.203C-6.361,-20.055 -6.269,-19.869 -6.269,-19.869C-6.269,-19.869 -6.167,-19.684 -6.37,-19.508C-6.583,-19.323 -6.88,-19.157 -6.963,-19.11L-7.287,-19.397L-6.241,-20.314C-6.213,-20.332 -6.213,-20.379 -6.231,-20.397C-6.241,-20.416 -6.259,-20.416 -6.278,-20.416C-6.296,-20.416 -6.306,-20.407 -6.315,-20.397L-7.38,-19.471L-8.444,-20.397C-8.454,-20.407 -8.472,-20.416 -8.481,-20.416C-8.5,-20.416 -8.519,-20.407 -8.528,-20.397C-8.546,-20.369 -8.546,-20.332 -8.519,-20.314L-7.472,-19.397L-7.796,-19.11C-7.88,-19.157 -8.176,-19.332 -8.389,-19.508C-8.593,-19.675 -8.491,-19.869 -8.491,-19.869C-8.491,-19.869 -8.398,-20.055 -8.593,-20.203C-8.593,-20.203 -8.907,-20.444 -8.907,-20.749C-8.907,-20.777 -8.935,-20.805 -8.963,-20.805C-8.981,-20.805 -9,-20.795 -9.009,-20.777C-9.009,-20.777 -9.315,-20.286 -9.565,-19.638C-9.565,-19.638 -9.315,-19.527 -9.37,-19.129C-9.426,-18.795 -9.019,-18.36 -8.889,-18.24C-8.907,-18.221 -8.917,-18.194 -8.917,-18.157C-8.917,-18.082 -8.861,-18.027 -8.787,-18.027C-8.713,-18.027 -8.657,-18.082 -8.657,-18.157L-8.657,-18.184L-7.361,-19.314L-6.065,-18.184L-6.065,-18.157C-6.065,-18.082 -6.009,-18.027 -5.935,-18.027C-5.861,-18.027 -5.806,-18.082 -5.806,-18.157C-5.806,-18.184 -5.815,-18.212 -5.833,-18.24C-5.713,-18.36 -5.296,-18.795 -5.352,-19.129C-5.417,-19.518 -5.157,-19.638 -5.157,-19.638C-5.444,-20.286 -5.75,-20.777 -5.75,-20.777M-11.306,-17.731C-11.306,-17.731 -11.389,-17.869 -11.63,-17.879C-11.63,-17.879 -11.713,-17.879 -11.769,-17.897C-11.787,-17.897 -11.796,-17.907 -11.806,-17.925C-11.824,-17.953 -11.815,-17.99 -11.787,-18.008L-11.741,-18.036C-11.741,-18.036 -11.907,-18.119 -12.12,-18.092L-12.046,-18.184C-12.046,-18.184 -12.63,-18.416 -13.176,-18.305C-13.602,-18.212 -13.713,-18.018 -13.741,-17.934C-13.759,-17.879 -13.769,-17.823 -13.769,-17.768C-13.769,-17.61 -13.704,-17.481 -13.602,-17.425C-13.565,-17.407 -13.528,-17.388 -13.491,-17.388C-13.472,-17.379 -13.435,-17.379 -13.417,-17.379C-13.287,-17.379 -13.185,-17.462 -13.185,-17.564C-13.185,-17.666 -13.287,-17.749 -13.417,-17.749C-13.454,-17.749 -13.481,-17.74 -13.509,-17.731C-13.5,-17.786 -13.472,-17.851 -13.389,-17.879C-13.083,-17.971 -12.537,-17.444 -12.537,-17.444C-12.296,-17.407 -12.065,-17.434 -12.065,-17.434C-12.065,-17.434 -12.491,-18.036 -13.037,-18.11C-13.037,-18.11 -12.537,-18.231 -11.843,-17.462C-11.843,-17.462 -11.611,-17.49 -11.222,-17.601C-11.222,-17.582 -11.287,-17.703 -11.306,-17.731M-13.796,-15.36L-13.806,-15.323C-13.815,-15.295 -13.824,-15.258 -13.824,-15.231C-13.824,-15.194 -13.815,-15.157 -13.806,-15.119C-13.806,-15.11 -13.787,-15.092 -13.787,-15.092C-13.778,-15.073 -13.769,-15.055 -13.769,-15.055C-13.741,-15.008 -13.731,-14.916 -13.731,-14.823C-13.731,-14.749 -13.731,-14.684 -13.759,-14.629C-14.046,-14.055 -13.935,-13.545 -13.935,-13.545L-13.944,-13.545C-14.157,-13.527 -14.315,-13.249 -14.287,-12.934C-14.287,-12.749 -14.194,-12.416 -14.194,-12.416C-14.074,-11.999 -14.12,-11.907 -14.12,-11.897C-14.13,-11.879 -14.139,-11.869 -14.157,-11.86C-14.185,-11.851 -14.222,-11.86 -14.231,-11.897L-14.241,-11.916C-14.259,-11.971 -14.296,-12.018 -14.324,-12.073C-14.435,-12.231 -14.583,-12.342 -14.713,-12.369L-14.722,-12.369L-14.722,-12.36C-14.667,-12.314 -14.62,-12.249 -14.574,-12.184C-14.519,-12.101 -14.481,-12.008 -14.472,-11.925C-14.472,-11.916 -14.472,-11.916 -14.481,-11.907L-14.5,-11.907L-14.509,-11.916C-14.528,-11.944 -14.556,-11.962 -14.583,-11.981C-14.611,-11.999 -14.639,-12.018 -14.667,-12.027L-14.676,-12.027C-14.685,-12.027 -14.685,-12.018 -14.676,-12.018C-14.657,-11.971 -14.648,-11.953 -14.63,-11.86C-14.62,-11.786 -14.611,-11.731 -14.611,-11.731C-14.593,-11.305 -14.454,-11.157 -14.435,-11.147C-14.444,-11.138 -14.444,-11.129 -14.435,-11.119C-14.37,-11.018 -14.231,-10.953 -14.083,-10.953C-13.981,-10.953 -13.898,-10.981 -13.824,-11.027L-13.815,-11.027C-13.778,-10.832 -13.648,-10.675 -13.472,-10.629C-13.546,-10.703 -13.593,-10.814 -13.593,-10.934C-13.593,-10.999 -13.583,-11.064 -13.556,-11.119L-13.519,-11.203C-13.472,-11.305 -13.454,-11.434 -13.454,-11.582C-13.454,-11.712 -13.481,-11.86 -13.509,-11.925C-13.537,-11.99 -13.593,-12.157 -13.833,-12.555C-13.981,-12.805 -14.056,-13.036 -14.056,-13.036C-14.065,-13.055 -14.065,-13.082 -14.065,-13.101C-14.065,-13.221 -13.981,-13.332 -13.87,-13.36C-13.833,-13.258 -13.778,-13.157 -13.713,-13.055C-13.713,-13.055 -13.648,-12.971 -13.194,-12.527C-12.815,-12.157 -12.62,-11.703 -12.648,-11.342C-12.75,-11.351 -12.833,-11.444 -12.833,-11.555L-12.833,-11.61C-12.852,-11.758 -12.963,-11.869 -13.093,-11.869C-13.111,-11.869 -13.12,-11.869 -13.139,-11.86C-13.111,-11.823 -13.102,-11.768 -13.102,-11.712C-13.102,-11.619 -13.139,-11.545 -13.185,-11.508C-13.194,-11.416 -13.185,-11.305 -13.157,-11.194C-13.13,-11.092 -13.093,-10.999 -13.056,-10.925C-13.157,-10.869 -13.167,-10.703 -13.074,-10.545C-13.046,-10.499 -13.009,-10.453 -12.972,-10.425C-13.028,-10.36 -12.944,-10.212 -12.796,-10.092C-12.769,-10.064 -12.731,-10.045 -12.704,-10.027C-12.722,-10.018 -12.731,-10.008 -12.741,-9.99C-12.778,-9.916 -12.685,-9.805 -12.537,-9.74C-12.519,-9.731 -12.5,-9.721 -12.481,-9.721C-12.444,-9.61 -12.343,-9.49 -12.185,-9.416C-12.111,-9.379 -12.028,-9.351 -11.954,-9.342C-11.954,-9.268 -11.806,-9.212 -11.611,-9.212C-11.509,-9.212 -11.417,-9.231 -11.352,-9.258L-11.333,-9.258C-11.287,-9.203 -11.241,-9.166 -11.241,-9.166C-11.157,-9.092 -11.037,-9.073 -10.963,-9.119C-10.954,-9.129 -10.944,-9.138 -10.944,-9.147C-10.944,-9.157 -10.954,-9.175 -10.963,-9.175C-10.972,-9.24 -11.009,-9.323 -11.065,-9.407L-11.074,-9.416C-11.074,-9.425 -11.074,-9.434 -11.065,-9.444L-10.75,-9.74C-10.741,-9.749 -10.722,-9.768 -10.722,-9.795C-10.722,-9.805 -10.713,-9.823 -10.722,-9.832C-10.722,-9.832 -10.491,-10.138 -10.426,-10.342C-10.398,-10.351 -10.38,-10.369 -10.37,-10.397C-10.37,-10.397 -10.361,-10.425 -10.352,-10.453C-10.343,-10.49 -10.343,-10.536 -10.37,-10.582C-10.38,-10.592 -10.389,-10.61 -10.398,-10.619C-10.398,-10.619 -10.454,-10.666 -10.546,-10.731C-10.556,-10.731 -10.556,-10.74 -10.565,-10.74C-10.583,-10.749 -10.63,-10.768 -10.667,-10.749C-10.667,-10.758 -10.676,-10.768 -10.685,-10.777C-10.704,-10.795 -10.75,-10.814 -10.806,-10.814C-10.87,-10.814 -10.917,-10.805 -10.935,-10.786C-10.944,-10.768 -10.954,-10.758 -10.954,-10.731L-10.954,-10.703C-10.954,-10.657 -11,-10.592 -11.065,-10.555L-11.074,-10.555C-11.093,-10.545 -11.167,-10.499 -11.287,-10.462C-11.315,-10.481 -11.352,-10.49 -11.389,-10.49C-11.361,-10.545 -11.352,-10.629 -11.352,-10.694L-11.352,-10.786C-11.352,-10.823 -11.333,-10.851 -11.306,-10.869C-11.231,-10.916 -11.157,-10.981 -11.093,-11.055C-11.074,-11.073 -11.056,-11.101 -11.037,-11.119C-11.037,-11.119 -10.769,-11.101 -10.167,-10.971L-10.241,-11.064C-10.269,-11.101 -10.278,-11.147 -10.259,-11.194L-10.204,-11.342C-10.204,-11.342 -10.463,-11.444 -10.657,-11.564C-10.667,-11.573 -10.667,-11.582 -10.648,-11.582C-10.602,-11.592 -10.565,-11.601 -10.519,-11.619C-10.454,-11.638 -10.407,-11.675 -10.361,-11.703C-10.296,-11.749 -10.25,-11.823 -10.25,-11.916C-10.25,-11.962 -10.259,-12.008 -10.287,-12.045L-10.481,-12.768C-10.491,-12.795 -10.5,-12.814 -10.519,-12.823L-10.565,-12.851C-10.574,-12.851 -10.574,-12.86 -10.583,-12.869L-10.676,-12.999C-10.694,-13.027 -10.731,-13.055 -10.769,-13.073C-10.833,-13.101 -10.944,-13.157 -11.019,-13.184C-11.046,-13.194 -11.065,-13.184 -11.083,-13.166C-11.12,-13.119 -11.148,-13.036 -11.148,-12.953C-11.148,-12.805 -11.13,-12.684 -10.981,-12.684C-10.981,-12.684 -10.954,-12.684 -10.935,-12.694L-10.806,-12.675C-10.796,-12.675 -10.778,-12.657 -10.787,-12.647L-10.796,-12.518L-10.796,-12.481C-10.787,-12.425 -10.769,-12.388 -10.731,-12.36C-10.694,-12.332 -10.648,-12.249 -10.639,-12.157C-10.63,-12.092 -10.63,-12.055 -10.63,-12.055C-10.63,-12.018 -10.657,-11.981 -10.704,-11.981L-10.713,-11.981C-10.713,-11.981 -10.759,-11.99 -10.963,-12.027C-11.009,-12.258 -11.157,-12.536 -11.389,-12.786C-11.528,-12.944 -11.676,-13.064 -11.824,-13.157C-11.843,-13.166 -11.861,-13.194 -11.861,-13.221L-11.861,-13.342C-11.861,-13.342 -11.704,-13.499 -11.565,-13.786C-11.546,-13.832 -11.528,-13.879 -11.528,-13.934C-11.528,-13.971 -11.528,-13.999 -11.546,-14.036C-11.565,-14.082 -11.565,-14.119 -11.981,-14.758C-12,-14.786 -12,-14.814 -11.981,-14.842C-11.935,-14.897 -11.843,-14.999 -11.63,-15.119C-11.62,-15.129 -11.611,-15.129 -11.593,-15.138C-11.574,-15.138 -11.556,-15.147 -11.546,-15.157C-11.519,-15.175 -11.5,-15.194 -11.491,-15.212L-11.426,-15.342C-11.426,-15.342 -11.417,-15.351 -11.417,-15.36C-11.407,-15.379 -11.38,-15.397 -11.352,-15.416C-11.352,-15.416 -11.343,-15.416 -11.343,-15.425C-11.343,-15.425 -11.315,-15.434 -11.306,-15.444C-11.157,-15.555 -11.13,-15.666 -11.13,-15.721C-11.13,-15.74 -11.139,-15.758 -11.157,-15.758C-11.231,-15.777 -11.463,-15.814 -11.704,-15.777C-11.713,-15.777 -11.731,-15.768 -11.731,-15.758C-11.741,-15.731 -11.759,-15.675 -11.759,-15.601L-11.759,-15.592C-11.741,-15.545 -11.75,-15.508 -11.769,-15.499L-11.778,-15.499C-11.796,-15.499 -11.815,-15.481 -11.824,-15.453C-11.907,-15.249 -12.287,-15.027 -12.315,-15.018C-12.361,-14.99 -12.389,-14.944 -12.389,-14.888L-12.389,-14.879C-12.389,-14.86 -12.38,-14.842 -12.38,-14.823C-12.361,-14.786 -12.343,-14.721 -12.343,-14.721C-12.315,-14.647 -12.296,-14.564 -12.296,-14.481C-12.296,-14.388 -12.315,-14.295 -12.352,-14.221C-12.481,-13.934 -12.648,-13.842 -12.648,-13.842C-12.63,-13.971 -12.648,-14.119 -12.722,-14.268C-12.731,-14.277 -12.731,-14.295 -12.741,-14.305C-12.778,-14.351 -12.889,-14.518 -13.176,-14.851C-13.176,-14.851 -13.324,-15.036 -13.444,-15.295C-13.481,-15.388 -13.509,-15.481 -13.509,-15.582C-13.509,-15.703 -13.5,-15.879 -13.491,-15.953C-13.472,-16.036 -13.444,-16.138 -13.426,-16.194C-13.417,-16.221 -13.398,-16.24 -13.37,-16.258L-13.324,-16.286C-13.324,-16.286 -13.167,-16.527 -13.139,-16.582C-13.12,-16.61 -13.12,-16.638 -13.148,-16.657C-13.157,-16.666 -13.157,-16.666 -13.167,-16.666C-13.167,-16.666 -13.296,-16.703 -13.704,-16.684C-13.731,-16.684 -13.75,-16.666 -13.759,-16.647C-13.778,-16.61 -13.796,-16.536 -13.787,-16.434L-13.768,-16.305C-13.768,-16.277 -13.768,-16.258 -13.787,-16.231L-13.796,-16.212C-13.815,-16.184 -13.824,-16.147 -13.824,-16.101C-13.824,-16.073 -13.824,-16.045 -13.815,-16.027C-13.806,-15.981 -13.796,-15.925 -13.796,-15.869L-13.796,-15.805C-13.741,-15.619 -13.759,-15.462 -13.796,-15.36M-12.694,-8.545C-12.694,-8.018 -12.259,-7.582 -11.731,-7.582C-11.62,-7.582 -11.519,-7.601 -11.426,-7.629L-11.426,-7.342C-10.917,-7.657 -10.556,-8.073 -10.426,-8.462L-10.38,-8.305C-10.213,-8.518 -10.102,-8.731 -10.046,-8.934L-10.009,-8.758C-9.926,-9.082 -9.583,-9.416 -9.102,-9.592C-9.083,-9.601 -9.065,-9.601 -9.056,-9.61L-8.889,-9.962C-9.037,-9.99 -9.194,-10.008 -9.361,-9.999C-9.741,-9.99 -10.083,-9.879 -10.306,-9.721C-10.241,-9.703 -10.167,-9.694 -10.083,-9.694C-10.343,-9.555 -10.565,-9.388 -10.741,-9.221C-10.685,-9.203 -10.63,-9.194 -10.565,-9.194C-10.685,-9.082 -10.852,-8.981 -11.046,-8.897C-11.074,-8.888 -11.102,-8.879 -11.13,-8.869C-11.074,-8.805 -11.009,-8.758 -10.926,-8.749C-10.981,-8.675 -11.074,-8.629 -11.176,-8.629C-11.259,-8.629 -11.343,-8.666 -11.398,-8.721C-11.454,-8.638 -11.556,-8.582 -11.667,-8.582C-11.843,-8.582 -11.991,-8.731 -11.991,-8.907C-11.991,-8.981 -11.972,-9.045 -11.926,-9.092C-12.176,-9.045 -12.389,-8.897 -12.537,-8.703C-12.593,-8.758 -12.657,-8.795 -12.731,-8.805C-12.704,-8.721 -12.694,-8.638 -12.694,-8.545M-10.046,-6.74L-8.426,-8.129C-8.417,-8.129 -8.417,-8.119 -8.407,-8.119L-9.472,-6.268L-8.157,-7.953C-8.148,-7.953 -8.148,-7.944 -8.139,-7.944L-8.815,-5.916L-7.852,-7.832C-7.843,-7.832 -7.843,-7.832 -7.833,-7.823L-8.12,-5.703L-7.556,-7.768L-7.537,-7.768L-7.389,-5.629L-7.241,-7.768L-7.222,-7.768L-6.657,-5.703L-6.926,-7.832C-6.917,-7.832 -6.917,-7.832 -6.907,-7.842L-5.944,-5.925L-6.62,-7.953C-6.611,-7.953 -6.611,-7.962 -6.602,-7.962L-5.287,-6.277L-6.352,-8.129C-6.343,-8.129 -6.343,-8.138 -6.333,-8.138L-4.713,-6.749L-6.111,-8.351C-6.111,-8.36 -6.102,-8.36 -6.102,-8.369L-4.25,-7.323L-5.935,-8.619C-5.935,-8.629 -5.926,-8.629 -5.926,-8.638L-4.259,-8.11L-5.815,-8.907C-5.917,-8.879 -6.028,-8.86 -6.13,-8.832C-6.352,-8.351 -6.833,-8.036 -7.38,-8.036C-7.926,-8.036 -8.398,-8.351 -8.62,-8.832C-8.713,-8.851 -8.944,-8.907 -8.944,-8.907L-10.5,-8.11L-8.833,-8.638C-8.833,-8.629 -8.824,-8.629 -8.824,-8.619L-10.509,-7.323L-8.657,-8.369C-8.657,-8.36 -8.648,-8.36 -8.648,-8.351L-10.046,-6.74ZM-8.398,-8.879C-8.278,-8.832 -8.157,-8.795 -8,-8.768L-7.935,-9.092L-7.639,-9.064L-7.657,-8.74L-7.102,-8.74L-7.12,-9.064L-6.824,-9.092L-6.759,-8.768C-6.593,-8.795 -6.472,-8.832 -6.361,-8.879L-6.454,-9.184L-6.185,-9.305L-6.074,-9.018C-5.889,-9.138 -5.787,-9.249 -5.787,-9.249L-6.176,-10.073C-6.417,-9.953 -6.963,-9.805 -7.389,-9.805C-7.815,-9.805 -8.352,-9.953 -8.602,-10.073L-8.991,-9.249C-8.991,-9.249 -8.889,-9.138 -8.704,-9.018L-8.593,-9.305L-8.324,-9.184L-8.398,-8.879ZM-6.324,-15.277C-6.324,-15.277 -7.12,-15.258 -7.343,-15.536C-7.361,-15.555 -7.398,-15.555 -7.417,-15.536C-7.639,-15.258 -8.435,-15.277 -8.435,-15.277C-10.87,-15.277 -10.111,-13.518 -10.111,-13.518C-9.639,-12.407 -9.972,-11.388 -10.083,-11.175C-10.102,-11.147 -10.093,-11.11 -10.074,-11.092L-9.361,-10.314C-9.333,-10.286 -9.287,-10.268 -9.25,-10.286C-8.259,-10.684 -7.389,-10.286 -7.389,-10.286C-7.389,-10.286 -6.519,-10.675 -5.528,-10.286C-5.491,-10.268 -5.444,-10.277 -5.417,-10.314L-4.704,-11.092C-4.685,-11.119 -4.676,-11.147 -4.694,-11.175C-4.806,-11.388 -5.13,-12.407 -4.667,-13.518C-4.657,-13.527 -3.898,-15.277 -6.324,-15.277M-9.889,-16.907L-10.102,-17.508L-9.491,-17.981C-9.491,-17.981 -10.019,-17.731 -10.574,-17.545C-10.574,-17.545 -9.787,-17.897 -9.269,-18.231L-9.12,-17.777C-9.472,-17.694 -9.759,-17.592 -9.981,-17.481L-9.63,-16.471C-9.176,-16.712 -8.343,-16.869 -7.38,-16.869C-6.417,-16.869 -5.574,-16.712 -5.13,-16.471L-4.778,-17.481C-5,-17.592 -5.287,-17.694 -5.639,-17.777L-5.491,-18.231C-4.981,-17.897 -4.185,-17.545 -4.185,-17.545C-4.741,-17.731 -5.269,-17.981 -5.269,-17.981L-4.657,-17.508L-4.88,-16.907C-3.009,-16.045 -2.093,-16.564 -2.093,-16.564L-1.62,-17.499C-3.065,-16.74 -5.574,-18.434 -5.574,-18.434L-5.759,-17.805C-6.213,-17.897 -6.769,-17.962 -7.389,-17.962C-8.009,-17.962 -8.565,-17.907 -9.019,-17.805L-9.204,-18.434C-9.204,-18.434 -11.704,-16.749 -13.157,-17.499L-12.685,-16.564C-12.676,-16.564 -11.759,-16.036 -9.889,-16.907M-11.056,-15.999C-10.574,-15.805 -10.204,-15.953 -10.204,-15.953C-10.204,-15.953 -9.898,-16.064 -9.898,-16.305C-9.898,-16.453 -9.981,-16.518 -9.991,-16.518C-10.019,-16.536 -10.056,-16.564 -10.12,-16.564C-10.222,-16.564 -10.296,-16.499 -10.296,-16.416C-10.296,-16.36 -10.259,-16.314 -10.204,-16.314C-10.176,-16.314 -10.157,-16.314 -10.13,-16.323C-10.13,-16.323 -10.111,-16.24 -10.259,-16.24C-10.398,-16.24 -10.454,-16.407 -10.454,-16.407C-10.481,-16.481 -10.537,-16.518 -10.537,-16.518C-10.713,-16.453 -10.824,-16.425 -10.824,-16.425C-10.731,-16.24 -10.463,-16.157 -10.463,-16.157C-10.463,-16.157 -10.694,-16.175 -10.935,-16.397C-11.065,-16.36 -11.213,-16.342 -11.213,-16.342C-11.12,-16.11 -11.426,-16.166 -11.426,-16.166C-11.306,-16.018 -11.111,-16.082 -11.111,-16.082C-11.111,-16.082 -11.074,-16.101 -11.046,-16.082C-11,-16.064 -11.056,-15.999 -11.056,-15.999M-3.713,-16.092C-3.685,-16.11 -3.648,-16.092 -3.648,-16.092C-3.648,-16.092 -3.454,-16.027 -3.333,-16.175C-3.333,-16.175 -3.639,-16.11 -3.546,-16.351C-3.546,-16.351 -3.694,-16.369 -3.824,-16.407C-4.065,-16.184 -4.296,-16.166 -4.296,-16.166C-4.296,-16.166 -4.028,-16.249 -3.935,-16.434C-3.935,-16.434 -4.056,-16.471 -4.222,-16.527C-4.222,-16.527 -4.278,-16.481 -4.306,-16.416C-4.306,-16.416 -4.361,-16.249 -4.5,-16.249C-4.648,-16.249 -4.63,-16.332 -4.63,-16.332C-4.611,-16.323 -4.583,-16.314 -4.556,-16.323C-4.5,-16.332 -4.463,-16.379 -4.463,-16.425C-4.463,-16.508 -4.546,-16.573 -4.639,-16.573C-4.704,-16.573 -4.741,-16.545 -4.769,-16.527C-4.778,-16.518 -4.861,-16.453 -4.861,-16.314C-4.861,-16.073 -4.556,-15.962 -4.556,-15.962C-4.556,-15.962 -4.176,-15.814 -3.704,-16.008C-3.713,-15.999 -3.759,-16.064 -3.713,-16.092M-4.426,-15.119L-4.509,-14.953C-4.435,-14.916 -4.343,-14.897 -4.296,-14.888C-4.287,-14.888 -4.278,-14.869 -4.287,-14.86L-4.5,-14.573L-4.37,-14.564L-4.38,-14.416L-4.259,-14.499L-4.185,-14.397L-4.083,-14.684C-4.083,-14.694 -4.065,-14.694 -4.056,-14.684L-3.889,-14.425L-3.824,-14.555L-3.685,-14.508L-3.722,-14.657L-3.593,-14.712L-3.843,-14.888C-3.852,-14.897 -3.852,-14.907 -3.843,-14.916L-3.546,-14.999L-3.639,-15.082L-3.546,-15.194L-3.694,-15.194L-3.704,-15.323L-4.009,-15.129C-4.019,-15.119 -4.037,-15.129 -4.037,-15.138C-4.046,-15.184 -4.056,-15.286 -4.093,-15.36L-4.269,-15.286C-4.269,-15.286 -4.269,-15.24 -4.278,-15.184C-4.435,-15.369 -4.685,-15.536 -4.991,-15.684C-4.981,-15.749 -5.009,-15.832 -5.065,-15.86C-5.324,-15.999 -5.324,-16.045 -5.417,-16.082C-5.5,-16.11 -5.648,-16.064 -5.713,-15.962C-5.88,-16.018 -6.046,-16.064 -6.222,-16.11L-6.204,-16.231L-6.019,-16.119C-5.991,-16.101 -5.954,-16.101 -5.926,-16.119C-5.889,-16.138 -5.88,-16.184 -5.889,-16.212L-5.898,-16.231C-5.898,-16.24 -5.898,-16.249 -5.889,-16.258L-5.87,-16.277C-5.852,-16.305 -5.852,-16.351 -5.87,-16.379C-5.889,-16.407 -5.926,-16.416 -5.954,-16.407L-6.065,-16.379C-6.074,-16.379 -6.083,-16.388 -6.074,-16.397L-6,-16.471C-5.981,-16.499 -5.972,-16.527 -5.981,-16.564C-6,-16.601 -6.037,-16.619 -6.074,-16.619L-6.13,-16.61L-6.148,-16.61L-6.194,-16.638C-6.231,-16.657 -6.269,-16.647 -6.296,-16.619C-6.324,-16.592 -6.324,-16.564 -6.315,-16.527L-6.278,-16.425C-6.278,-16.416 -6.287,-16.407 -6.296,-16.407L-6.389,-16.471C-6.417,-16.49 -6.454,-16.49 -6.481,-16.481C-6.519,-16.462 -6.537,-16.425 -6.528,-16.388L-6.519,-16.36C-6.519,-16.351 -6.519,-16.342 -6.528,-16.332L-6.537,-16.314C-6.565,-16.286 -6.565,-16.24 -6.537,-16.212C-6.519,-16.184 -6.481,-16.175 -6.454,-16.175L-6.241,-16.212L-6.269,-16.092C-6.435,-16.129 -6.611,-16.166 -6.796,-16.184L-6.759,-16.286C-6.75,-16.342 -6.769,-16.388 -6.815,-16.425C-6.861,-16.462 -6.926,-16.471 -6.981,-16.444L-7.213,-16.305L-7.074,-16.536C-7.046,-16.592 -7.056,-16.657 -7.093,-16.703C-7.13,-16.749 -7.185,-16.758 -7.231,-16.758L-7.37,-16.712L-7.509,-16.758C-7.565,-16.768 -7.611,-16.749 -7.648,-16.703C-7.685,-16.657 -7.694,-16.592 -7.667,-16.536L-7.528,-16.305L-7.759,-16.444C-7.815,-16.471 -7.88,-16.462 -7.926,-16.425C-7.972,-16.388 -7.981,-16.332 -7.981,-16.286L-7.944,-16.184C-8.13,-16.166 -8.306,-16.129 -8.472,-16.092L-8.5,-16.212L-8.287,-16.175C-8.259,-16.166 -8.222,-16.184 -8.204,-16.212C-8.185,-16.24 -8.185,-16.286 -8.204,-16.314L-8.213,-16.332C-8.222,-16.342 -8.222,-16.351 -8.222,-16.36L-8.213,-16.388C-8.204,-16.425 -8.222,-16.462 -8.259,-16.481C-8.287,-16.499 -8.324,-16.49 -8.352,-16.471L-8.444,-16.407C-8.454,-16.397 -8.472,-16.407 -8.463,-16.425L-8.426,-16.527C-8.417,-16.555 -8.426,-16.592 -8.444,-16.619C-8.472,-16.647 -8.509,-16.657 -8.546,-16.638L-8.593,-16.61L-8.611,-16.61L-8.667,-16.619C-8.704,-16.619 -8.741,-16.601 -8.759,-16.564C-8.768,-16.536 -8.768,-16.499 -8.741,-16.471L-8.667,-16.397C-8.657,-16.388 -8.667,-16.369 -8.676,-16.379L-8.787,-16.407C-8.815,-16.416 -8.852,-16.407 -8.87,-16.379C-8.898,-16.351 -8.898,-16.305 -8.87,-16.277L-8.852,-16.258C-8.843,-16.249 -8.843,-16.24 -8.843,-16.231L-8.852,-16.212C-8.861,-16.175 -8.852,-16.138 -8.815,-16.119C-8.787,-16.101 -8.75,-16.101 -8.722,-16.119L-8.537,-16.231L-8.518,-16.11C-8.685,-16.073 -8.852,-16.018 -9.009,-15.971C-9.065,-16.064 -9.176,-16.101 -9.278,-16.064C-9.278,-16.064 -9.333,-16.055 -9.88,-15.712L-9.574,-15.768C-9.972,-15.601 -10.268,-15.407 -10.463,-15.194C-10.472,-15.249 -10.472,-15.295 -10.472,-15.295L-10.648,-15.369C-10.676,-15.295 -10.694,-15.194 -10.704,-15.147C-10.704,-15.138 -10.722,-15.129 -10.731,-15.138L-11.037,-15.332L-11.046,-15.203L-11.194,-15.203L-11.102,-15.092L-11.194,-15.008L-10.898,-14.925C-10.889,-14.925 -10.889,-14.907 -10.898,-14.897L-11.148,-14.721L-11.018,-14.666L-11.056,-14.518L-10.917,-14.564L-10.852,-14.434L-10.685,-14.694C-10.676,-14.703 -10.667,-14.703 -10.657,-14.694L-10.556,-14.407L-10.481,-14.508L-10.361,-14.425L-10.37,-14.573L-10.241,-14.582L-10.454,-14.869C-10.463,-14.879 -10.454,-14.897 -10.444,-14.897C-10.398,-14.907 -10.296,-14.925 -10.231,-14.962L-10.315,-15.129L-10.417,-15.129C-10.241,-15.332 -9.944,-15.527 -9.556,-15.684L-9.824,-15.499C-9.185,-15.601 -9.139,-15.629 -9.139,-15.629C-9.037,-15.666 -8.981,-15.768 -9,-15.879C-8.843,-15.925 -8.676,-15.962 -8.509,-15.99L-8.481,-15.869L-8.694,-15.907C-8.722,-15.916 -8.759,-15.897 -8.778,-15.869C-8.796,-15.842 -8.796,-15.795 -8.778,-15.768L-8.768,-15.749C-8.759,-15.74 -8.759,-15.731 -8.759,-15.721L-8.768,-15.694C-8.778,-15.657 -8.759,-15.619 -8.722,-15.601C-8.694,-15.582 -8.657,-15.592 -8.63,-15.61L-8.537,-15.675C-8.528,-15.684 -8.509,-15.675 -8.518,-15.657L-8.556,-15.555C-8.565,-15.527 -8.565,-15.49 -8.537,-15.462C-8.509,-15.434 -8.472,-15.425 -8.435,-15.444L-8.389,-15.471L-8.37,-15.471L-8.315,-15.462C-8.278,-15.462 -8.241,-15.481 -8.222,-15.518C-8.213,-15.545 -8.213,-15.582 -8.241,-15.61L-8.315,-15.694C-8.324,-15.703 -8.315,-15.721 -8.306,-15.712L-8.194,-15.684C-8.167,-15.675 -8.13,-15.684 -8.111,-15.712C-8.083,-15.74 -8.083,-15.786 -8.111,-15.814L-8.13,-15.842C-8.139,-15.851 -8.139,-15.86 -8.139,-15.869L-8.13,-15.888C-8.12,-15.925 -8.13,-15.962 -8.167,-15.981C-8.194,-15.999 -8.231,-15.999 -8.259,-15.981L-8.444,-15.869L-8.463,-15.99C-8.306,-16.018 -8.148,-16.036 -7.991,-16.055L-8,-16.027C-8.009,-15.971 -7.991,-15.925 -7.944,-15.888C-7.898,-15.851 -7.833,-15.842 -7.778,-15.869L-7.546,-16.008L-7.685,-15.777C-7.713,-15.721 -7.704,-15.657 -7.667,-15.61C-7.63,-15.564 -7.574,-15.555 -7.528,-15.555L-7.389,-15.601L-7.25,-15.555C-7.194,-15.545 -7.148,-15.564 -7.111,-15.61C-7.074,-15.657 -7.065,-15.721 -7.093,-15.777L-7.231,-16.008L-7,-15.869C-6.944,-15.842 -6.88,-15.851 -6.833,-15.888C-6.787,-15.925 -6.778,-15.981 -6.778,-16.027L-6.787,-16.055C-6.63,-16.036 -6.472,-16.018 -6.315,-15.99L-6.333,-15.869L-6.519,-15.981C-6.546,-15.999 -6.583,-15.999 -6.611,-15.981C-6.648,-15.962 -6.657,-15.916 -6.648,-15.888L-6.639,-15.869C-6.639,-15.86 -6.639,-15.851 -6.648,-15.842L-6.667,-15.814C-6.685,-15.786 -6.685,-15.74 -6.667,-15.712C-6.648,-15.684 -6.611,-15.675 -6.583,-15.684L-6.472,-15.712C-6.463,-15.712 -6.454,-15.703 -6.463,-15.694L-6.537,-15.61C-6.556,-15.582 -6.565,-15.555 -6.556,-15.518C-6.537,-15.481 -6.5,-15.462 -6.463,-15.462L-6.407,-15.471L-6.389,-15.471L-6.343,-15.444C-6.306,-15.425 -6.269,-15.434 -6.241,-15.462C-6.213,-15.49 -6.213,-15.518 -6.222,-15.555L-6.259,-15.657C-6.259,-15.666 -6.25,-15.675 -6.241,-15.675L-6.148,-15.61C-6.12,-15.592 -6.083,-15.592 -6.056,-15.601C-6.019,-15.619 -6.009,-15.657 -6.009,-15.694L-6.019,-15.721C-6.019,-15.731 -6.019,-15.74 -6.009,-15.749L-6,-15.768C-5.972,-15.795 -5.972,-15.842 -6,-15.869C-6.019,-15.897 -6.056,-15.907 -6.083,-15.907L-6.296,-15.869L-6.269,-15.99C-6.102,-15.962 -5.935,-15.916 -5.769,-15.869C-5.787,-15.749 -5.713,-15.619 -5.63,-15.592C-5.537,-15.555 -5.509,-15.592 -5.222,-15.518C-5.167,-15.499 -5.083,-15.545 -5.046,-15.601C-4.75,-15.462 -4.509,-15.295 -4.361,-15.119L-4.426,-15.119M-3.343,-7.351L-3.343,-7.638C-3.25,-7.601 -3.139,-7.592 -3.037,-7.592C-2.509,-7.592 -2.074,-8.018 -2.074,-8.555C-2.074,-8.647 -2.065,-8.731 -2.046,-8.814C-2.12,-8.795 -2.185,-8.758 -2.241,-8.712C-2.38,-8.916 -2.602,-9.055 -2.852,-9.101C-2.815,-9.045 -2.787,-8.981 -2.787,-8.916C-2.787,-8.74 -2.935,-8.592 -3.111,-8.592C-3.222,-8.592 -3.324,-8.647 -3.38,-8.731C-3.435,-8.675 -3.519,-8.638 -3.602,-8.638C-3.704,-8.638 -3.796,-8.684 -3.852,-8.758C-3.769,-8.777 -3.694,-8.823 -3.648,-8.879C-3.676,-8.888 -3.704,-8.897 -3.731,-8.907C-3.926,-8.981 -4.093,-9.092 -4.213,-9.203C-4.148,-9.203 -4.093,-9.212 -4.037,-9.231C-4.213,-9.397 -4.435,-9.564 -4.694,-9.703C-4.62,-9.703 -4.546,-9.712 -4.472,-9.731C-4.694,-9.888 -5.037,-9.999 -5.417,-10.008C-5.583,-10.018 -5.741,-9.999 -5.889,-9.971L-5.722,-9.619C-5.704,-9.61 -5.685,-9.61 -5.676,-9.601C-5.194,-9.425 -4.852,-9.101 -4.769,-8.768L-4.731,-8.944C-4.676,-8.74 -4.565,-8.527 -4.398,-8.314L-4.352,-8.471C-4.204,-8.082 -3.852,-7.666 -3.343,-7.351M-17.38,13.556L-17.38,-26.444L2.62,-26.444L2.62,13.556L-17.38,13.556ZM-7.583,-14.064C-7.565,-14.082 -7.574,-14.184 -7.574,-14.184L-7.676,-14.184L-7.676,-14.166L-7.639,-14.157L-7.639,-14.092L-7.611,-14.11L-7.583,-14.064ZM-6.963,-13.99C-6.963,-13.99 -6.972,-14.008 -6.981,-14.045C-7,-14.082 -7,-14.129 -7,-14.129L-7.056,-14.194C-7.148,-14.194 -7.25,-14.184 -7.361,-14.184L-7.509,-14.184L-7.509,-14.147L-7.491,-14.175C-7.324,-14.073 -7.389,-13.879 -7.389,-13.879L-7.204,-13.897C-7.204,-13.916 -7.185,-13.934 -7.185,-13.934C-7.139,-13.925 -7.046,-13.851 -7.046,-13.851C-7.028,-13.944 -6.963,-13.99 -6.963,-13.99M-5.62,-11.721C-5.62,-11.721 -5.315,-11.592 -5.019,-11.518C-5.056,-11.638 -5.102,-11.786 -5.13,-11.971L-9.667,-11.971C-9.685,-11.768 -9.713,-11.638 -9.759,-11.527L-9.287,-11.712L-8.37,-11.471L-8.056,-11.601L-8.426,-11.786L-7.056,-11.305L-6.435,-11.555L-6.824,-11.786L-6.009,-11.434L-5.62,-11.721ZM-6.806,-14.073C-6.806,-14.147 -6.833,-14.194 -6.861,-14.212C-6.898,-14.212 -6.935,-14.203 -6.972,-14.203L-6.954,-14.147C-6.954,-14.147 -6.972,-14.119 -6.944,-14.092C-6.917,-14.064 -6.87,-13.981 -6.87,-13.981C-6.944,-13.879 -6.917,-13.823 -6.917,-13.823L-6.861,-13.944C-6.861,-13.953 -6.806,-13.962 -6.806,-14.073M-9.306,-11.555L-9.861,-11.212L-9.88,-11.175L-9.306,-11.342L-9.63,-10.907L-9.602,-10.879L-9.176,-11.212L-9.37,-10.619L-9.352,-10.601L-9.009,-11.147L-8.926,-10.61C-8.926,-10.61 -8.898,-10.619 -8.87,-10.619L-8.806,-11.157L-8.333,-10.666L-8.269,-10.666L-8.593,-11.24L-7.602,-10.573L-7.463,-10.527L-8.361,-11.332L-8.602,-11.407C-8.667,-11.295 -8.796,-11.212 -8.935,-11.212C-9.111,-11.231 -9.278,-11.369 -9.306,-11.555M-7.37,-14.351C-7.769,-14.351 -8.102,-14.314 -8.102,-14.268C-8.102,-14.24 -7.963,-14.212 -7.759,-14.203L-7.722,-14.157L-7.704,-14.157C-7.704,-14.157 -7.694,-14.119 -7.685,-14.119L-7.685,-14.064C-7.685,-14.064 -7.731,-14.036 -7.741,-13.944L-7.806,-13.999C-7.806,-13.999 -7.88,-13.971 -7.944,-13.851C-7.944,-13.851 -8.028,-13.962 -8.102,-13.981C-8.102,-13.981 -8.157,-13.934 -8.167,-13.869L-8.194,-13.869C-8.194,-13.869 -8.222,-13.869 -8.231,-13.86C-8.241,-13.851 -8.269,-13.823 -8.269,-13.823L-8.269,-13.786L-8.259,-13.777L-8.269,-13.74C-8.269,-13.74 -8.296,-13.731 -8.287,-13.684C-8.278,-13.638 -8.278,-13.582 -8.278,-13.582C-8.278,-13.582 -8.333,-13.564 -8.287,-13.499C-8.241,-13.444 -8.12,-13.342 -8.037,-13.397L-8.019,-13.397C-8.019,-13.323 -7.926,-13.268 -7.824,-13.268C-7.824,-13.268 -7.787,-13.194 -7.546,-13.231C-7.546,-13.231 -7.398,-13.249 -7.306,-13.342C-7.306,-13.342 -7.037,-13.351 -6.917,-13.416C-6.917,-13.416 -6.593,-13.388 -6.667,-13.758C-6.676,-13.823 -6.657,-13.916 -6.657,-13.916C-6.657,-13.916 -6.769,-13.897 -6.741,-13.694C-6.713,-13.49 -6.824,-13.481 -6.824,-13.481C-6.824,-13.481 -6.75,-13.573 -6.787,-13.749C-6.815,-13.869 -6.741,-13.953 -6.741,-13.953C-6.741,-13.953 -6.741,-14.045 -6.769,-14.11C-6.787,-14.166 -6.759,-14.194 -6.759,-14.194L-6.778,-14.24C-6.694,-14.249 -6.648,-14.268 -6.648,-14.286C-6.639,-14.314 -6.963,-14.351 -7.37,-14.351M-6.333,-13.092L-6.306,-12.851L-6.861,-13.231L-6.713,-12.601L-7.056,-12.805L-7.38,-12.11L-7.704,-12.805L-8.046,-12.601L-7.898,-13.231L-8.454,-12.851L-8.426,-13.092L-9.111,-12.999L-8.722,-13.61L-8.926,-13.694L-8.139,-14.055L-8.676,-14.434L-8.519,-14.481L-8.769,-14.842L-8.065,-14.721L-8.065,-14.925L-7.463,-14.61L-7.463,-14.934L-7.296,-14.934L-7.296,-14.61L-6.694,-14.925L-6.694,-14.721L-5.991,-14.842L-6.241,-14.481L-6.083,-14.434L-6.62,-14.055L-5.833,-13.694L-6.037,-13.61L-5.648,-12.999L-6.333,-13.092Z" style="fill:rgb(92,102,112);fill-rule:nonzero;"/>
                </g>
                <g>
                    <clipPath id="_clip1">
                        <rect x="53.692" y="241.58" width="165" height="26" clip-rule="nonzero"/>
                    </clipPath>
                    <g clip-path="url(#_clip1)">
                        <g>
                            <g transform="matrix(1,0,0,-1,216.062,242.08)">
                                <path d="M0,-25L-159.74,-25C-160.916,-25 -161.87,-24.046 -161.87,-22.87L-161.87,-2.13C-161.87,-0.954 -160.916,0 -159.74,0L0,0C1.176,0 2.13,-0.954 2.13,-2.13L2.13,-22.87C2.13,-24.046 1.176,-25 0,-25Z" style="fill:white;fill-rule:nonzero;stroke:rgb(204,204,204);stroke-width:1px;"/>
                            </g>
                            <g transform="matrix(1,0,0,1,2,0.1428)">
                                <g transform="matrix(10,0,0,10,104.334,258.187)">
                                </g>
                                <text x="58.998px" y="258.187px" style="font-family:'Roboto-Regular', 'Roboto';font-size:10px;fill:rgb(119,119,119);">Username</text>
                            </g>
                        </g>
                    </g>
                </g>
                <g>
                    <clipPath id="_clip2">
                        <rect x="53.692" y="287.08" width="165" height="26" clip-rule="nonzero"/>
                    </clipPath>
                    <g clip-path="url(#_clip2)">
                        <g>
                            <g transform="matrix(1,0,0,-1,216.062,287.58)">
                                <path d="M0,-25L-159.74,-25C-160.916,-25 -161.87,-24.046 -161.87,-22.87L-161.87,-2.13C-161.87,-0.954 -160.916,0 -159.74,0L0,0C1.176,0 2.13,-0.954 2.13,-2.13L2.13,-22.87C2.13,-24.046 1.176,-25 0,-25Z" style="fill:white;fill-rule:nonzero;stroke:rgb(204,204,204);stroke-width:1px;"/>
                            </g>
                            <g transform="matrix(1,0,0,1,2,45.6429)">
                                <g transform="matrix(10,0,0,10,103.644,258.187)">
                                </g>
                                <text x="59.493px" y="258.187px" style="font-family:'Roboto-Regular', 'Roboto';font-size:10px;fill:rgb(119,119,119);">Passwor<tspan x="98.004px " y="258.187px ">d</tspan></text>
                            </g>
                        </g>
                    </g>
                </g>
                <g transform="matrix(1,0,0,-1,216.369,330.48)">
                    <path d="M0,-26L-159.74,-26C-160.916,-26 -161.87,-25.046 -161.87,-23.87L-161.87,-2.13C-161.87,-0.954 -160.916,0 -159.74,0L0,0C1.176,0 2.13,-0.954 2.13,-2.13L2.13,-23.87C2.13,-25.046 1.176,-26 0,-26" style="fill:rgb(200,16,46);fill-rule:nonzero;"/>
                </g>
                <text x="121.401px" y="347.034px" style="font-family:'Roboto-Regular', 'Roboto';font-size:10px;fill:white;fill-opacity:0.9;">Sign In</text>
            </g>
        </g>
    </g>
</svg>
