<?xml version="1.0" encoding="UTF-8" standalone="no"?>
<!DOCTYPE svg PUBLIC "-//W3C//DTD SVG 1.1//EN" "http://www.w3.org/Graphics/SVG/1.1/DTD/svg11.dtd">
<svg width="100%" height="100%" viewBox="0 0 209 438" version="1.1" xmlns="http://www.w3.org/2000/svg" xmlns:xlink="http://www.w3.org/1999/xlink" xml:space="preserve" xmlns:serif="http://www.serif.com/" style="fill-rule:evenodd;clip-rule:evenodd;stroke-linejoin:round;stroke-miterlimit:2;">
    <g transform="matrix(1,0,0,1,-1957,-59)">
        <g transform="matrix(1,0,0,1,1687.5,0)">
            <g transform="matrix(1,0,0,1,-1687.5,535.531)">
                <g transform="matrix(1,0,0,-1,2063.41,-460.941)">
                    <path d="M0,-406.588C8.837,-406.588 16,-399.425 16,-390.588C16,-381.751 8.837,-374.588 0,-374.588C-8.837,-374.588 -16,-381.751 -16,-390.588C-16,-399.425 -8.837,-406.588 0,-406.588M-29.176,-27.294C-27.617,-27.294 -26.353,-26.03 -26.353,-24.47C-26.353,-22.911 -27.617,-21.647 -29.176,-21.647C-30.736,-21.647 -32,-22.911 -32,-24.47C-32,-26.03 -30.736,-27.294 -29.176,-27.294M0,-408.47C9.876,-408.47 17.882,-400.464 17.882,-390.588C17.882,-380.712 9.876,-372.706 0,-372.706C-9.876,-372.706 -17.882,-380.712 -17.882,-390.588C-17.882,-400.464 -9.876,-408.47 0,-408.47M-0.471,-12.235C1.868,-12.235 3.765,-10.339 3.765,-8C3.765,-5.661 1.868,-3.764 -0.471,-3.764C-2.81,-3.764 -4.706,-5.661 -4.706,-8C-4.706,-10.339 -2.81,-12.235 -0.471,-12.235M-16.933,-22.588C-17.457,-22.588 -17.882,-23.005 -17.882,-23.538L-17.882,-25.403C-17.882,-25.927 -17.458,-26.353 -16.942,-26.353L15.993,-26.353C16.516,-26.353 16.941,-25.935 16.941,-25.403L16.941,-23.538C16.941,-23.013 16.526,-22.588 15.992,-22.588L-16.933,-22.588ZM-102.588,-139.294L-105.588,-139.294L-105.588,-123.294L-102.588,-123.294L-102.588,-103.529L-105.588,-103.529L-105.588,-87.529L-102.588,-87.529L-102.588,-66.823L-105.588,-66.823L-105.588,-47.059L-102.588,-47.059L-102.588,-16.946C-102.588,-0.314 -89.108,13.177 -72.479,13.177L34.824,13.177L34.824,15.059L68.706,15.059L68.706,13.177L72.479,13.177C89.106,13.177 102.588,-0.31 102.588,-16.946L102.588,-391.524C102.588,-408.157 89.108,-421.647 72.479,-421.647L-72.479,-421.647C-89.106,-421.647 -102.588,-408.16 -102.588,-391.524L-102.588,-139.294Z" style="fill-rule:nonzero;"/>
                </g>
                <g transform="matrix(-1,0,0,-1,2064.5,-254.981)">
                    <rect x="-89.001" y="-158.417" width="180" height="319.5" style="fill:white;"/>
                </g>
                <g transform="matrix(-1,0,0,-1,1947.41,-73.4828)">
                    <rect x="-86.001" y="63.582" width="57" height="57" style="fill:rgb(92,102,112);"/>
                </g>
                <g transform="matrix(-1,0,0,-1,2065.41,-73.4828)">
                    <rect x="-27.001" y="63.582" width="57" height="57" style="fill:rgb(200,16,46);"/>
                </g>
                <g transform="matrix(1,0,0,1,1694.93,-544.534)">
                    <text x="292.912px" y="395.503px" style="font-family:'Roboto-Regular', 'Roboto';font-size:10px;fill:white;fill-opacity:0.9;">Resto<tspan x="318.393px " y="395.503px ">r</tspan>e</text>
                </g>
                <g transform="matrix(1,0,0,1,1693.19,-544.534)">
                    <text x="351.916px" y="395.503px" style="font-family:'Roboto-Regular', 'Roboto';font-size:10px;fill:white;fill-opacity:0.9;">Sign Out</text>
                </g>
                <g transform="matrix(1,0,0,-1,2062.5,-559.481)">
                    <rect x="-89.001" y="-158.417" width="180" height="15" style="fill:white;"/>
                </g>
                <g transform="matrix(1,0,0,-1,2131.62,-406.126)">
                    <path d="M0,4.875L0,0C0,-0.207 0.168,-0.375 0.375,-0.375L15,-0.375C15.207,-0.375 15.375,-0.207 15.375,0L15.375,4.875C15.375,5.082 15.207,5.25 15,5.25L0.375,5.25C0.168,5.25 0,5.082 0,4.875M0.375,5.625C-0.039,5.625 -0.375,5.289 -0.375,4.875L-0.375,0C-0.375,-0.414 -0.039,-0.75 0.375,-0.75L15,-0.75C15.414,-0.75 15.75,-0.414 15.75,0L15.75,4.875C15.75,5.289 15.414,5.625 15,5.625L0.375,5.625ZM16.125,4.875L16.125,-0.006C16.125,-0.628 15.621,-1.125 15,-1.125L0.375,-1.125C-0.246,-1.125 -0.75,-0.628 -0.75,-0.006L-0.75,4.875C-0.75,5.496 -0.246,6 0.375,6L15,6C15.621,6 16.125,5.496 16.125,4.875M17.625,2.437C17.625,1.712 17.225,1.125 16.5,1.125L16.5,3.75C17.225,3.75 17.625,3.163 17.625,2.437"/>
                </g>
                <g transform="matrix(1,0,0,-1,2109.45,-406.317)">
                    <path d="M0,4.376L-0.018,4.376L-1.035,3.827L-1.188,4.43L0.09,5.114L0.765,5.114L0.765,-0.738L0,-0.738L0,4.376Z" style="fill-rule:nonzero;"/>
                </g>
                <g transform="matrix(1,0,0,-1,2113.06,-408.532)">
                    <path d="M0,-0.054C0,-1.575 0.468,-2.44 1.188,-2.44C1.999,-2.44 2.386,-1.494 2.386,-0C2.386,1.44 2.017,2.385 1.197,2.385C0.504,2.385 0,1.539 0,-0.054M3.178,0.036C3.178,-1.953 2.44,-3.052 1.144,-3.052C0,-3.052 -0.774,-1.981 -0.792,-0.045C-0.792,1.918 0.054,2.998 1.243,2.998C2.476,2.998 3.178,1.9 3.178,0.036" style="fill-rule:nonzero;"/>
                </g>
                <g transform="matrix(1,0,0,-1,2117.68,-408.532)">
                    <path d="M0,-0.054C0,-1.575 0.468,-2.44 1.188,-2.44C1.999,-2.44 2.386,-1.494 2.386,-0C2.386,1.44 2.017,2.385 1.197,2.385C0.504,2.385 0,1.539 0,-0.054M3.178,0.036C3.178,-1.953 2.44,-3.052 1.144,-3.052C0,-3.052 -0.774,-1.981 -0.792,-0.045C-0.792,1.918 0.054,2.998 1.243,2.998C2.476,2.998 3.178,1.9 3.178,0.036" style="fill-rule:nonzero;"/>
                </g>
                <g transform="matrix(1,0,0,-1,2125.89,-409.702)">
                    <path d="M0,-2.394C-0.009,-3.141 0.279,-3.708 0.765,-3.708C1.287,-3.708 1.521,-3.15 1.521,-2.376C1.521,-1.665 1.314,-1.071 0.765,-1.071C0.27,-1.071 0,-1.656 0,-2.394M2.143,-2.34C2.143,-3.573 1.494,-4.186 0.747,-4.186C0.018,-4.186 -0.612,-3.601 -0.621,-2.43C-0.621,-1.25 0.018,-0.594 0.792,-0.594C1.611,-0.594 2.143,-1.224 2.143,-2.34M-3.124,-4.222L0.315,1.828L0.819,1.828L-2.62,-4.222L-3.124,-4.222ZM-3.808,0.028C-3.826,-0.72 -3.547,-1.287 -3.052,-1.287C-2.53,-1.287 -2.296,-0.728 -2.296,0.046C-2.296,0.757 -2.503,1.351 -3.052,1.351C-3.547,1.351 -3.808,0.766 -3.808,0.028M-1.666,0.082C-1.666,-1.152 -2.314,-1.764 -3.07,-1.764C-3.799,-1.764 -4.429,-1.179 -4.438,0.001C-4.438,1.171 -3.799,1.828 -3.025,1.828C-2.206,1.828 -1.666,1.198 -1.666,0.082" style="fill-rule:nonzero;"/>
                </g>
                <g transform="matrix(1,0,0,-1,2047.97,-407.506)">
                    <path d="M0,1.999C0,1.27 0.441,0.756 1.125,0.756C1.657,0.756 2.071,1.018 2.278,1.369C2.323,1.441 2.35,1.531 2.35,1.657C2.35,2.656 1.98,3.421 1.152,3.421C0.477,3.421 0,2.827 0,1.999M-0.288,-1.368C-0.117,-1.386 0.081,-1.368 0.351,-1.341C0.81,-1.278 1.242,-1.089 1.576,-0.774C1.962,-0.423 2.242,0.09 2.35,0.784L2.323,0.784C1.999,0.387 1.53,0.153 0.945,0.153C-0.108,0.153 -0.783,0.946 -0.783,1.945C-0.783,3.052 0.018,4.024 1.215,4.024C2.413,4.024 3.151,3.052 3.151,1.558C3.151,0.27 2.719,-0.63 2.143,-1.188C1.692,-1.629 1.071,-1.899 0.441,-1.971C0.153,-2.016 -0.099,-2.025 -0.288,-2.016L-0.288,-1.368Z" style="fill-rule:nonzero;"/>
                </g>
                <g transform="matrix(1,0,0,-1,2051.9,-409.225)">
                    <path d="M0,-3.187C0,-2.854 0.225,-2.62 0.54,-2.62C0.855,-2.62 1.062,-2.854 1.071,-3.187C1.071,-3.502 0.864,-3.745 0.531,-3.745C0.216,-3.745 0,-3.502 0,-3.187M0,-0.009C0,0.324 0.225,0.558 0.54,0.558C0.855,0.558 1.062,0.324 1.071,-0.009C1.071,-0.324 0.864,-0.567 0.531,-0.567C0.216,-0.567 0,-0.324 0,-0.009" style="fill-rule:nonzero;"/>
                </g>
                <g transform="matrix(1,0,0,-1,2056.15,-409.216)">
                    <path d="M0,-1.422L0,0.532C0,0.837 0.009,1.143 0.027,1.45L0,1.45C-0.18,1.108 -0.324,0.855 -0.486,0.585L-1.917,-1.404L-1.917,-1.422L0,-1.422ZM0,-3.637L0,-2.044L-2.719,-2.044L-2.719,-1.521L-0.108,2.215L0.747,2.215L0.747,-1.422L1.566,-1.422L1.566,-2.044L0.747,-2.044L0.747,-3.637L0,-3.637Z" style="fill-rule:nonzero;"/>
                </g>
                <g transform="matrix(1,0,0,-1,2060.04,-406.317)">
                    <path d="M0,4.376L-0.018,4.376L-1.035,3.827L-1.188,4.43L0.09,5.114L0.765,5.114L0.765,-0.738L0,-0.738L0,4.376Z" style="fill-rule:nonzero;"/>
                </g>
                <g transform="matrix(1,0,0,-1,2068.09,-409.126)">
                    <path d="M0,-1.026L-0.594,0.72C-0.729,1.117 -0.819,1.476 -0.91,1.828L-0.927,1.828C-1.018,1.468 -1.117,1.099 -1.233,0.729L-1.828,-1.026L0,-1.026ZM-1.99,-1.638L-2.62,-3.547L-3.43,-3.547L-1.369,2.521L-0.423,2.521L1.647,-3.547L0.81,-3.547L0.162,-1.638L-1.99,-1.638Z" style="fill-rule:nonzero;"/>
                </g>
                <g transform="matrix(1,0,0,-1,2075.71,-408.982)">
                    <path d="M0,-0.738C-0.045,0.109 -0.099,1.126 -0.09,1.882L-0.117,1.882C-0.324,1.171 -0.576,0.414 -0.882,-0.423L-1.954,-3.366L-2.548,-3.366L-3.529,-0.477C-3.817,0.379 -4.061,1.162 -4.231,1.882L-4.25,1.882C-4.268,1.126 -4.312,0.109 -4.366,-0.801L-4.528,-3.403L-5.276,-3.403L-4.853,2.665L-3.854,2.665L-2.818,-0.27C-2.566,-1.017 -2.359,-1.683 -2.206,-2.313L-2.179,-2.313C-2.026,-1.701 -1.81,-1.035 -1.54,-0.27L-0.459,2.665L0.54,2.665L0.918,-3.403L0.153,-3.403L0,-0.738Z" style="fill-rule:nonzero;"/>
                </g>
                <g transform="matrix(1,0,0,-1,2011.93,-410.003)">
                    <path d="M0,-2.504C0.5,-2.504 1.009,-2.688 1.443,-3.025L0,-4.627L-1.442,-3.023C-1.008,-2.688 -0.5,-2.504 0,-2.504M0,-0.206C1.066,-0.206 2.122,-0.599 2.984,-1.314L2.343,-2.026C1.681,-1.49 0.853,-1.196 0,-1.196C-0.851,-1.196 -1.679,-1.489 -2.341,-2.023L-2.981,-1.311C-2.119,-0.598 -1.065,-0.206 0,-0.206M0,2.123C1.58,2.123 3.175,1.502 4.503,0.372L3.904,-0.293C2.81,0.627 1.427,1.133 0,1.133C-1.427,1.133 -2.807,0.629 -3.899,-0.288L-4.497,0.376C-3.172,1.504 -1.578,2.123 0,2.123" style="fill-rule:nonzero;"/>
                </g>
                <g transform="matrix(1,0,0,-1,1986.06,-406.501)">
                    <path d="M0,4.125C-1.139,4.125 -2.063,3.201 -2.063,2.062C-2.063,0.924 -1.139,0 0,0C1.14,0 2.063,0.924 2.063,2.062C2.063,3.201 1.14,4.125 0,4.125M5.25,4.125C4.111,4.125 3.188,3.201 3.188,2.062C3.188,0.924 4.111,0 5.25,0C6.39,0 7.312,0.924 7.312,2.062C7.312,3.201 6.39,4.125 5.25,4.125M10.5,4.125C9.361,4.125 8.438,3.201 8.438,2.062C8.438,0.924 9.361,0 10.5,0C11.64,0 12.562,0.924 12.562,2.062C12.562,3.201 11.64,4.125 10.5,4.125M15.75,4.125C14.611,4.125 13.687,3.201 13.687,2.062C13.687,0.924 14.611,0 15.75,0C16.89,0 17.812,0.924 17.812,2.062C17.812,3.201 16.89,4.125 15.75,4.125M-5.25,4.125C-4.11,4.125 -3.188,3.201 -3.188,2.062C-3.188,0.924 -4.11,0 -5.25,0C-6.389,0 -7.313,0.924 -7.313,2.062C-7.313,3.201 -6.389,4.125 -5.25,4.125"/>
                </g>
                <g transform="matrix(-1,0,0,-1,2064.51,-517.483)">
                    <rect x="-88.95" y="-143.418" width="180" height="27" style="fill:rgb(234,236,237);"/>
                    <path d="M91.05,-143.418L91.05,-116.418L-88.95,-116.418L-88.95,-143.418L91.05,-143.418ZM90.05,-142.418L-87.95,-142.418L-87.95,-117.418L90.05,-117.418L90.05,-142.418Z" style="fill:rgb(209,212,214);"/>
                </g>
                <g transform="matrix(-1,0,0,-1,1947.41,-427.483)">
                    <rect x="-86.001" y="-113.418" width="57" height="57" style="fill:rgb(92,102,112);"/>
                </g>
                <g transform="matrix(-1,0,0,-1,2065.41,-427.483)">
                    <rect x="-27.001" y="-113.418" width="57" height="57" style="fill:rgb(92,102,112);"/>
                </g>
                <g transform="matrix(-1,0,0,-1,2183.41,-427.483)">
                    <rect x="31.999" y="-113.418" width="57" height="57" style="fill:rgb(92,102,112);"/>
                </g>
                <g transform="matrix(-1,0,0,-1,1947.41,-309.483)">
                    <rect x="-86.001" y="-54.418" width="57" height="57" style="fill:rgb(92,102,112);"/>
                </g>
                <g transform="matrix(-1,0,0,-1,2065.41,-309.483)">
                    <rect x="-27.001" y="-54.418" width="57" height="57" style="fill:rgb(92,102,112);"/>
                </g>
                <g transform="matrix(-1,0,0,-1,2183.41,-309.483)">
                    <rect x="31.999" y="-54.418" width="57" height="57" style="fill:rgb(92,102,112);"/>
                </g>
                <g transform="matrix(-1,0,0,-1,1947.41,-191.483)">
                    <rect x="-86.001" y="4.582" width="57" height="57" style="fill:rgb(92,102,112);"/>
                </g>
                <g transform="matrix(-1,0,0,-1,2065.41,-191.483)">
                    <rect x="-27.001" y="4.582" width="57" height="57" style="fill:rgb(92,102,112);"/>
                </g>
                <g transform="matrix(-1,0,0,-1,2183.41,-191.483)">
                    <rect x="31.999" y="4.582" width="57" height="57" style="fill:rgb(92,102,112);"/>
                </g>
                <g transform="matrix(1,0,0,1,1696.65,-543.534)">
                    <text x="292.912px" y="218.503px" style="font-family:'Roboto-Regular', 'Roboto';font-size:10px;fill:white;fill-opacity:0.9;">Search</text>
                </g>
                <g transform="matrix(1,0,0,1,1699.74,-543.534)">
                    <g transform="matrix(10,0,0,10,376.353,218.503)">
                    </g>
                    <text x="351.916px" y="218.503px" style="font-family:'Roboto-Regular', 'Roboto';font-size:10px;fill:white;fill-opacity:0.9;">Mov<tspan x="371.055px " y="218.503px ">e</tspan></text>
                </g>
                <g transform="matrix(1,0,0,1,1702.17,-544.534)">
                    <text x="410.92px" y="218.503px" style="font-family:'Roboto-Regular', 'Roboto';font-size:10px;fill:white;fill-opacity:0.9;">Visit</text>
                </g>
                <g transform="matrix(1,0,0,1,1698.52,-544.534)">
                    <text x="292.912px" y="277.503px" style="font-family:'Roboto-Regular', 'Roboto';font-size:10px;fill:white;fill-opacity:0.9;">Install</text>
                </g>
                <g transform="matrix(1,0,0,1,1694,-544.534)">
                    <text x="351.916px" y="277.503px" style="font-family:'Roboto-Regular', 'Roboto';font-size:10px;fill:white;fill-opacity:0.9;">Remov<tspan x="382.541px " y="277.503px ">e</tspan></text>
                </g>
                <g transform="matrix(1,0,0,1,1690.42,-544.534)">
                    <text x="410.92px" y="277.503px" style="font-family:'Roboto-Regular', 'Roboto';font-size:10px;fill:white;fill-opacity:0.9;">Exc<tspan x="426.694px " y="277.503px ">h</tspan>ange</text>
                </g>
                <g transform="matrix(1,0,0,1,1696.13,-544.534)">
                    <text x="292.912px" y="336.503px" style="font-family:'Roboto-Regular', 'Roboto';font-size:10px;fill:white;fill-opacity:0.9;">Update</text>
                </g>
                <g transform="matrix(1,0,0,1,1696.47,-544.534)">
                    <g transform="matrix(10,0,0,10,382.969,336.503)">
                    </g>
                    <text x="351.916px" y="336.503px" style="font-family:'Roboto-Regular', 'Roboto';font-size:10px;fill:white;fill-opacity:0.9;">Pairing</text>
                </g>
                <g transform="matrix(1,0,0,1,1698.07,-544.534)">
                    <g transform="matrix(10,0,0,10,438.757,336.503)">
                    </g>
                    <text x="410.92px" y="336.503px" style="font-family:'Roboto-Regular', 'Roboto';font-size:10px;fill:white;fill-opacity:0.9;">Cutoff</text>
                </g>
                <g transform="matrix(1,0,0,1,1688.28,-551.173)">
                    <g transform="matrix(10,0,0,10,387.709,168.35)">
                    </g>
                    <text x="362.654px" y="168.35px" style="font-family:'Roboto-Regular', 'Roboto';font-size:10px;">Menu</text>
                </g>
                <g transform="matrix(0.0357143,0,0,0.0357143,2053.63,-181.708)">
                    <path d="M534.6,278.6C547.1,266.1 547.1,245.8 534.6,233.3L406.6,105.3C394.1,92.8 373.8,92.8 361.3,105.3C348.8,117.8 348.8,138.1 361.3,150.6L434.7,224L224,224C206.3,224 192,238.3 192,256C192,273.7 206.3,288 224,288L434.7,288L361.3,361.4C348.8,373.9 348.8,394.2 361.3,406.7C373.8,419.2 394.1,419.2 406.6,406.7L534.6,278.7L534.6,278.6ZM192,96C209.7,96 224,81.7 224,64C224,46.3 209.7,32 192,32L128,32C75,32 32,75 32,128L32,384C32,437 75,480 128,480L192,480C209.7,480 224,465.7 224,448C224,430.3 209.7,416 192,416L128,416C110.3,416 96,401.7 96,384L96,128C96,110.3 110.3,96 128,96L192,96Z" style="fill:white;fill-opacity:0.35;fill-rule:nonzero;"/>
                </g>
                <g transform="matrix(0.0357123,0,0,0.0357123,2054.77,-240.707)">
                    <path d="M105.1,202.6C112.8,180.8 125.3,160.3 142.9,142.8C205.4,80.3 306.7,80.3 369.2,142.8L386.3,160L336,160C318.3,160 304,174.3 304,192C304,209.7 318.3,224 336,224L463.9,224C481.6,224 495.9,209.7 495.9,192L495.9,64C495.9,46.3 481.6,32 463.9,32C446.2,32 431.9,46.3 431.9,64L431.9,115.2L414.4,97.6C326.9,10.1 185.1,10.1 97.6,97.6C73.2,122 55.6,150.7 44.8,181.4C38.9,198.1 47.7,216.3 64.3,222.2C80.9,228.1 99.2,219.3 105.1,202.7L105.1,202.6ZM39,289.3C34,290.8 29.2,293.5 25.3,297.5C21.3,301.5 18.6,306.3 17.2,311.5C16.9,312.7 16.6,314 16.4,315.3C16.1,317 16,318.7 16,320.4L16,448C16,465.7 30.3,480 48,480C65.7,480 80,465.7 80,448L80,396.9L97.6,414.4C185.1,501.8 326.9,501.8 414.3,414.4C438.7,390 456.4,361.3 467.2,330.7C473.1,314 464.3,295.8 447.7,289.9C431.1,284 412.8,292.8 406.9,309.4C399.2,331.2 386.7,351.7 369.1,369.2C306.6,431.7 205.3,431.7 142.8,369.2L125.6,352L176,352C193.7,352 208,337.7 208,320C208,302.3 193.7,288 176,288L48.4,288C46.8,288 45.2,288.1 43.6,288.3C42,288.5 40.5,288.8 39,289.3Z" style="fill:white;fill-opacity:0.25;fill-rule:nonzero;"/>
                </g>
                <g transform="matrix(0.03125,0,0,0.03125,1996.91,-180.565)">
                    <path d="M75,75L41,41C25.9,25.9 0,36.6 0,57.9L0,168C0,181.3 10.7,192 24,192L134.1,192C155.5,192 166.2,166.1 151.1,151L120.3,120.2C155,85.5 203,64 256,64C362,64 448,150 448,256C448,362 362,448 256,448C215.2,448 177.4,435.3 146.3,413.6C131.8,403.5 111.9,407 101.7,421.5C91.5,436 95.1,455.9 109.6,466.1C151.2,495 201.7,512 256,512C397.4,512 512,397.4 512,256C512,114.6 397.4,0 256,0C185.3,0 121.3,28.7 75,75ZM256,128C242.7,128 232,138.7 232,152L232,256C232,262.4 234.5,268.5 239,273L311,345C320.4,354.4 335.6,354.4 344.9,345C354.2,335.6 354.3,320.4 344.9,311.1L279.9,246.1L279.9,152C279.9,138.7 269.2,128 255.9,128L256,128Z" style="fill:white;fill-opacity:0.25;fill-rule:nonzero;"/>
                </g>
                <g transform="matrix(0.03125,0,0,0.03125,2114.91,-239.565)">
                    <path d="M367.2,412.5L99.5,144.8C77.1,176.1 64,214.5 64,256C64,362 150,448 256,448C297.5,448 335.9,434.9 367.2,412.5ZM412.5,367.2C434.9,335.9 448,297.5 448,256C448,150 362,64 256,64C214.5,64 176.1,77.1 144.8,99.5L412.5,367.2ZM512,256C512,397.4 397.4,512 256,512C114.6,512 0,397.4 0,256C0,114.6 114.6,0 256,0C397.4,0 512,114.6 512,256Z" style="fill:white;fill-opacity:0.25;fill-rule:nonzero;"/>
                </g>
                <g transform="matrix(0.03125,0,0,0.03125,1996.91,-239.565)">
                    <path d="M243.8,339.8C232.9,350.7 215.1,350.7 204.2,339.8L140.2,275.8C129.3,264.9 129.3,247.1 140.2,236.2C151.1,225.3 168.9,225.3 179.8,236.2L224,280.4L332.2,172.2C343.1,161.3 360.9,161.3 371.8,172.2C382.7,183.1 382.7,200.9 371.8,211.8L243.8,339.8ZM512,256C512,397.4 397.4,512 256,512C114.6,512 0,397.4 0,256C0,114.6 114.6,0 256,0C397.4,0 512,114.6 512,256ZM256,48C141.1,48 48,141.1 48,256C48,370.9 141.1,464 256,464C370.9,464 464,370.9 464,256C464,141.1 370.9,48 256,48Z" style="fill:white;fill-opacity:0.25;fill-rule:nonzero;"/>
                </g>
                <g transform="matrix(0.03125,0,0,0.03125,1996.91,-298.565)">
                    <path d="M352,320C440.4,320 512,248.4 512,160C512,144.7 509.8,129.9 505.8,115.8C502.7,105 489.4,102.6 481.5,110.5L404.7,187.3C401.7,190.3 397.6,192 393.4,192L336,192C327.2,192 320,184.8 320,176L320,118.6C320,114.4 321.7,110.3 324.7,107.3L401.5,30.5C409.4,22.6 406.9,9.3 396.2,6.2C382.1,2.2 367.3,0 352,0C263.6,0 192,71.6 192,160C192,179.1 195.4,197.5 201.5,214.5L19.9,396.1C7.2,408.8 0,426.1 0,444.1C0,481.6 30.4,512 67.9,512C85.9,512 103.2,504.8 115.9,492.1L297.5,310.5C314.5,316.7 332.9,320 352,320ZM80,456C66.7,456 56,445.3 56,432C56,418.7 66.7,408 80,408C93.3,408 104,418.7 104,432C104,445.3 93.3,456 80,456Z" style="fill:white;fill-opacity:0.25;fill-rule:nonzero;"/>
                </g>
                <g transform="matrix(0.0357143,0,0,0.0357143,2114.91,-299.706)">
                    <path d="M438.6,150.6C451.1,138.1 451.1,117.8 438.6,105.3L342.6,9.3C330.1,-3.2 309.8,-3.2 297.3,9.3C284.8,21.8 284.8,42.1 297.3,54.6L338.7,96L32,96C14.3,96 0,110.3 0,128C0,145.7 14.3,160 32,160L338.7,160L297.3,201.4C284.8,213.9 284.8,234.2 297.3,246.7C309.8,259.2 330.1,259.2 342.6,246.7L438.6,150.7L438.6,150.6ZM105.3,502.6C117.8,515.1 138.1,515.1 150.6,502.6C163.1,490.1 163.1,469.8 150.6,457.3L109.3,416L416,416C433.7,416 448,401.7 448,384C448,366.3 433.7,352 416,352L109.3,352L150.7,310.6C163.2,298.1 163.2,277.8 150.7,265.3C138.2,252.8 117.9,252.8 105.4,265.3L9.4,361.3C-3.1,373.8 -3.1,394.1 9.4,406.6L105.4,502.6L105.3,502.6Z" style="fill:white;fill-opacity:0.25;fill-rule:nonzero;"/>
                </g>
                <g transform="matrix(0.0312515,0,0,0.0312515,1996.91,-357.566)">
                    <path d="M416,208C416,253.9 401.1,296.3 376,330.7L502.6,457.4C515.1,469.9 515.1,490.2 502.6,502.7C490.1,515.2 469.8,515.2 457.3,502.7L330.7,376C296.3,401.2 253.9,416 208,416C93.1,416 0,322.9 0,208C0,93.1 93.1,0 208,0C322.9,0 416,93.1 416,208ZM208,352C287.5,352 352,287.5 352,208C352,128.5 287.5,64 208,64C128.5,64 64,128.5 64,208C64,287.5 128.5,352 208,352Z" style="fill:white;fill-opacity:0.25;fill-rule:nonzero;"/>
                </g>
                <g transform="matrix(-0.03125,0,0,0.03125,2071.91,-357.565)">
                    <path d="M320,0C302.3,0 288,14.3 288,32C288,49.7 302.3,64 320,64L402.7,64L201.4,265.4C188.9,277.9 188.9,298.2 201.4,310.7C213.9,323.2 234.2,323.2 246.7,310.7L448,109.3L448,192C448,209.7 462.3,224 480,224C497.7,224 512,209.7 512,192L512,32C512,14.3 497.7,0 480,0L320,0ZM80,32C35.8,32 0,67.8 0,112L0,432C0,476.2 35.8,512 80,512L400,512C444.2,512 480,476.2 480,432L480,320C480,302.3 465.7,288 448,288C430.3,288 416,302.3 416,320L416,432C416,440.8 408.8,448 400,448L80,448C71.2,448 64,440.8 64,432L64,112C64,103.2 71.2,96 80,96L192,96C209.7,96 224,81.7 224,64C224,46.3 209.7,32 192,32L80,32Z" style="fill:white;fill-opacity:0.25;fill-rule:nonzero;"/>
                </g>
                <g transform="matrix(0.03125,0,0,0.03125,2112.91,-357.565)">
                    <path d="M48,0C21.5,0 0,21.5 0,48L0,368C0,394.5 21.5,416 48,416L64,416C64,469 107,512 160,512C213,512 256,469 256,416L384,416C384,469 427,512 480,512C533,512 576,469 576,416L608,416C625.7,416 640,401.7 640,384C640,366.3 625.7,352 608,352L608,237.3C608,220.3 601.3,204 589.3,192L512,114.7C500,102.7 483.7,96 466.7,96L416,96L416,48C416,21.5 394.5,0 368,0L48,0ZM416,160L466.7,160L544,237.3L544,256L416,256L416,160ZM208,416C208,442.5 186.5,464 160,464C133.5,464 112,442.5 112,416C112,389.5 133.5,368 160,368C186.5,368 208,389.5 208,416ZM480,464C453.5,464 432,442.5 432,416C432,389.5 453.5,368 480,368C506.5,368 528,389.5 528,416C528,442.5 506.5,464 480,464Z" style="fill:white;fill-opacity:0.25;fill-rule:nonzero;"/>
                </g>
                <g transform="matrix(0.03125,0,0,0.03125,2056.91,-298.565)">
                    <path d="M135.2,17.7L128,32L32,32C14.3,32 0,46.3 0,64C0,81.7 14.3,96 32,96L416,96C433.7,96 448,81.7 448,64C448,46.3 433.7,32 416,32L320,32L312.8,17.7C307.4,6.8 296.3,0 284.2,0L163.8,0C151.7,0 140.6,6.8 135.2,17.7ZM416,128L32,128L53.2,467C54.8,492.3 75.8,512 101.1,512L346.9,512C372.2,512 393.2,492.3 394.8,467L416,128Z" style="fill:white;fill-opacity:0.25;fill-rule:nonzero;"/>
                </g>
            </g>
        </g>
    </g>
</svg>
