<?xml version="1.0" encoding="UTF-8" standalone="no"?>
<!DOCTYPE svg PUBLIC "-//W3C//DTD SVG 1.1//EN" "http://www.w3.org/Graphics/SVG/1.1/DTD/svg11.dtd">
<svg width="100%" height="100%" viewBox="0 0 209 438" version="1.1" xmlns="http://www.w3.org/2000/svg" xmlns:xlink="http://www.w3.org/1999/xlink" xml:space="preserve" xmlns:serif="http://www.serif.com/" style="fill-rule:evenodd;clip-rule:evenodd;stroke-miterlimit:10;">
    <g transform="matrix(1,0,0,1,-2202,-59)">
        <g transform="matrix(1,0,0,1,1687.5,0)">
            <g transform="matrix(1,0,0,1,0,-15.6421)">
                <g>
                    <g transform="matrix(1,0,0,-1,620.912,90.232)">
                        <path d="M0,-406.588C8.837,-406.588 16,-399.425 16,-390.588C16,-381.751 8.837,-374.588 0,-374.588C-8.837,-374.588 -16,-381.751 -16,-390.588C-16,-399.425 -8.837,-406.588 0,-406.588M-29.176,-27.294C-27.617,-27.294 -26.353,-26.03 -26.353,-24.47C-26.353,-22.911 -27.617,-21.647 -29.176,-21.647C-30.736,-21.647 -32,-22.911 -32,-24.47C-32,-26.03 -30.736,-27.294 -29.176,-27.294M0,-408.47C9.876,-408.47 17.882,-400.464 17.882,-390.588C17.882,-380.712 9.876,-372.706 0,-372.706C-9.876,-372.706 -17.882,-380.712 -17.882,-390.588C-17.882,-400.464 -9.876,-408.47 0,-408.47M-0.471,-12.235C1.868,-12.235 3.765,-10.339 3.765,-8C3.765,-5.661 1.868,-3.764 -0.471,-3.764C-2.81,-3.764 -4.706,-5.661 -4.706,-8C-4.706,-10.339 -2.81,-12.235 -0.471,-12.235M-16.933,-22.588C-17.457,-22.588 -17.882,-23.005 -17.882,-23.538L-17.882,-25.403C-17.882,-25.927 -17.458,-26.353 -16.942,-26.353L15.993,-26.353C16.516,-26.353 16.941,-25.935 16.941,-25.403L16.941,-23.538C16.941,-23.013 16.526,-22.588 15.992,-22.588L-16.933,-22.588ZM-102.588,-139.294L-105.588,-139.294L-105.588,-123.294L-102.588,-123.294L-102.588,-103.529L-105.588,-103.529L-105.588,-87.529L-102.588,-87.529L-102.588,-66.823L-105.588,-66.823L-105.588,-47.059L-102.588,-47.059L-102.588,-16.946C-102.588,-0.314 -89.108,13.177 -72.479,13.177L34.824,13.177L34.824,15.059L68.706,15.059L68.706,13.177L72.479,13.177C89.106,13.177 102.588,-0.31 102.588,-16.946L102.588,-391.524C102.588,-408.157 89.108,-421.647 72.479,-421.647L-72.479,-421.647C-89.106,-421.647 -102.588,-408.16 -102.588,-391.524L-102.588,-139.294Z" style="fill-rule:nonzero;"/>
                    </g>
                    <g transform="matrix(-1,0,0,-1,621.998,296.192)">
                        <rect x="-89.001" y="-158.417" width="180" height="319.5" style="fill:white;"/>
                    </g>
                    <g transform="matrix(1,0,0,-1,620,-8.30794)">
                        <rect x="-89.001" y="-158.417" width="180" height="15" style="fill:white;"/>
                    </g>
                    <g transform="matrix(1,0,0,-1,689.124,145.047)">
                        <path d="M0,4.875L0,0C0,-0.207 0.168,-0.375 0.375,-0.375L15,-0.375C15.207,-0.375 15.375,-0.207 15.375,0L15.375,4.875C15.375,5.082 15.207,5.25 15,5.25L0.375,5.25C0.168,5.25 0,5.082 0,4.875M0.375,5.625C-0.039,5.625 -0.375,5.289 -0.375,4.875L-0.375,0C-0.375,-0.414 -0.039,-0.75 0.375,-0.75L15,-0.75C15.414,-0.75 15.75,-0.414 15.75,0L15.75,4.875C15.75,5.289 15.414,5.625 15,5.625L0.375,5.625ZM16.125,4.875L16.125,-0.006C16.125,-0.628 15.621,-1.125 15,-1.125L0.375,-1.125C-0.246,-1.125 -0.75,-0.628 -0.75,-0.006L-0.75,4.875C-0.75,5.496 -0.246,6 0.375,6L15,6C15.621,6 16.125,5.496 16.125,4.875M17.625,2.437C17.625,1.712 17.225,1.125 16.5,1.125L16.5,3.75C17.225,3.75 17.625,3.163 17.625,2.437"/>
                    </g>
                    <g transform="matrix(1,0,0,-1,666.954,144.856)">
                        <path d="M0,4.376L-0.018,4.376L-1.035,3.827L-1.188,4.43L0.09,5.114L0.765,5.114L0.765,-0.738L0,-0.738L0,4.376Z" style="fill-rule:nonzero;"/>
                    </g>
                    <g transform="matrix(1,0,0,-1,670.562,142.641)">
                        <path d="M0,-0.054C0,-1.575 0.468,-2.44 1.188,-2.44C1.999,-2.44 2.386,-1.494 2.386,-0C2.386,1.44 2.017,2.385 1.197,2.385C0.504,2.385 0,1.539 0,-0.054M3.178,0.036C3.178,-1.953 2.44,-3.052 1.144,-3.052C0,-3.052 -0.774,-1.981 -0.792,-0.045C-0.792,1.918 0.054,2.998 1.243,2.998C2.476,2.998 3.178,1.9 3.178,0.036" style="fill-rule:nonzero;"/>
                    </g>
                    <g transform="matrix(1,0,0,-1,675.179,142.641)">
                        <path d="M0,-0.054C0,-1.575 0.468,-2.44 1.188,-2.44C1.999,-2.44 2.386,-1.494 2.386,-0C2.386,1.44 2.017,2.385 1.197,2.385C0.504,2.385 0,1.539 0,-0.054M3.178,0.036C3.178,-1.953 2.44,-3.052 1.144,-3.052C0,-3.052 -0.774,-1.981 -0.792,-0.045C-0.792,1.918 0.054,2.998 1.243,2.998C2.476,2.998 3.178,1.9 3.178,0.036" style="fill-rule:nonzero;"/>
                    </g>
                    <g transform="matrix(1,0,0,-1,683.388,141.471)">
                        <path d="M0,-2.394C-0.009,-3.141 0.279,-3.708 0.765,-3.708C1.287,-3.708 1.521,-3.15 1.521,-2.376C1.521,-1.665 1.314,-1.071 0.765,-1.071C0.27,-1.071 0,-1.656 0,-2.394M2.143,-2.34C2.143,-3.573 1.494,-4.186 0.747,-4.186C0.018,-4.186 -0.612,-3.601 -0.621,-2.43C-0.621,-1.25 0.018,-0.594 0.792,-0.594C1.611,-0.594 2.143,-1.224 2.143,-2.34M-3.124,-4.222L0.315,1.828L0.819,1.828L-2.62,-4.222L-3.124,-4.222ZM-3.808,0.028C-3.826,-0.72 -3.547,-1.287 -3.052,-1.287C-2.53,-1.287 -2.296,-0.728 -2.296,0.046C-2.296,0.757 -2.503,1.351 -3.052,1.351C-3.547,1.351 -3.808,0.766 -3.808,0.028M-1.666,0.082C-1.666,-1.152 -2.314,-1.764 -3.07,-1.764C-3.799,-1.764 -4.429,-1.179 -4.438,0.001C-4.438,1.171 -3.799,1.828 -3.025,1.828C-2.206,1.828 -1.666,1.198 -1.666,0.082" style="fill-rule:nonzero;"/>
                    </g>
                    <g transform="matrix(1,0,0,-1,605.469,143.667)">
                        <path d="M0,1.999C0,1.27 0.441,0.756 1.125,0.756C1.657,0.756 2.071,1.018 2.278,1.369C2.323,1.441 2.35,1.531 2.35,1.657C2.35,2.656 1.98,3.421 1.152,3.421C0.477,3.421 0,2.827 0,1.999M-0.288,-1.368C-0.117,-1.386 0.081,-1.368 0.351,-1.341C0.81,-1.278 1.242,-1.089 1.576,-0.774C1.962,-0.423 2.242,0.09 2.35,0.784L2.323,0.784C1.999,0.387 1.53,0.153 0.945,0.153C-0.108,0.153 -0.783,0.946 -0.783,1.945C-0.783,3.052 0.018,4.024 1.215,4.024C2.413,4.024 3.151,3.052 3.151,1.558C3.151,0.27 2.719,-0.63 2.143,-1.188C1.692,-1.629 1.071,-1.899 0.441,-1.971C0.153,-2.016 -0.099,-2.025 -0.288,-2.016L-0.288,-1.368Z" style="fill-rule:nonzero;"/>
                    </g>
                    <g transform="matrix(1,0,0,-1,609.402,141.948)">
                        <path d="M0,-3.187C0,-2.854 0.225,-2.62 0.54,-2.62C0.855,-2.62 1.062,-2.854 1.071,-3.187C1.071,-3.502 0.864,-3.745 0.531,-3.745C0.216,-3.745 0,-3.502 0,-3.187M0,-0.009C0,0.324 0.225,0.558 0.54,0.558C0.855,0.558 1.062,0.324 1.071,-0.009C1.071,-0.324 0.864,-0.567 0.531,-0.567C0.216,-0.567 0,-0.324 0,-0.009" style="fill-rule:nonzero;"/>
                    </g>
                    <g transform="matrix(1,0,0,-1,613.65,141.957)">
                        <path d="M0,-1.422L0,0.532C0,0.837 0.009,1.143 0.027,1.45L0,1.45C-0.18,1.108 -0.324,0.855 -0.486,0.585L-1.917,-1.404L-1.917,-1.422L0,-1.422ZM0,-3.637L0,-2.044L-2.719,-2.044L-2.719,-1.521L-0.108,2.215L0.747,2.215L0.747,-1.422L1.566,-1.422L1.566,-2.044L0.747,-2.044L0.747,-3.637L0,-3.637Z" style="fill-rule:nonzero;"/>
                    </g>
                    <g transform="matrix(1,0,0,-1,617.538,144.856)">
                        <path d="M0,4.376L-0.018,4.376L-1.035,3.827L-1.188,4.43L0.09,5.114L0.765,5.114L0.765,-0.738L0,-0.738L0,4.376Z" style="fill-rule:nonzero;"/>
                    </g>
                    <g transform="matrix(1,0,0,-1,625.593,142.047)">
                        <path d="M0,-1.026L-0.594,0.72C-0.729,1.117 -0.819,1.476 -0.91,1.828L-0.927,1.828C-1.018,1.468 -1.117,1.099 -1.233,0.729L-1.828,-1.026L0,-1.026ZM-1.99,-1.638L-2.62,-3.547L-3.43,-3.547L-1.369,2.521L-0.423,2.521L1.647,-3.547L0.81,-3.547L0.162,-1.638L-1.99,-1.638Z" style="fill-rule:nonzero;"/>
                    </g>
                    <g transform="matrix(1,0,0,-1,633.208,142.191)">
                        <path d="M0,-0.738C-0.045,0.109 -0.099,1.126 -0.09,1.882L-0.117,1.882C-0.324,1.171 -0.576,0.414 -0.882,-0.423L-1.954,-3.366L-2.548,-3.366L-3.529,-0.477C-3.817,0.379 -4.061,1.162 -4.231,1.882L-4.25,1.882C-4.268,1.126 -4.312,0.109 -4.366,-0.801L-4.528,-3.403L-5.276,-3.403L-4.853,2.665L-3.854,2.665L-2.818,-0.27C-2.566,-1.017 -2.359,-1.683 -2.206,-2.313L-2.179,-2.313C-2.026,-1.701 -1.81,-1.035 -1.54,-0.27L-0.459,2.665L0.54,2.665L0.918,-3.403L0.153,-3.403L0,-0.738Z" style="fill-rule:nonzero;"/>
                    </g>
                    <g transform="matrix(1,0,0,-1,569.433,141.17)">
                        <path d="M0,-2.504C0.5,-2.504 1.009,-2.688 1.443,-3.025L0,-4.627L-1.442,-3.023C-1.008,-2.688 -0.5,-2.504 0,-2.504M0,-0.206C1.066,-0.206 2.122,-0.599 2.984,-1.314L2.343,-2.026C1.681,-1.49 0.853,-1.196 0,-1.196C-0.851,-1.196 -1.679,-1.489 -2.341,-2.023L-2.981,-1.311C-2.119,-0.598 -1.065,-0.206 0,-0.206M0,2.123C1.58,2.123 3.175,1.502 4.503,0.372L3.904,-0.293C2.81,0.627 1.427,1.133 0,1.133C-1.427,1.133 -2.807,0.629 -3.899,-0.288L-4.497,0.376C-3.172,1.504 -1.578,2.123 0,2.123" style="fill-rule:nonzero;"/>
                    </g>
                    <g transform="matrix(1,0,0,-1,543.561,144.672)">
                        <path d="M0,4.125C-1.139,4.125 -2.063,3.201 -2.063,2.062C-2.063,0.924 -1.139,0 0,0C1.14,0 2.063,0.924 2.063,2.062C2.063,3.201 1.14,4.125 0,4.125M5.25,4.125C4.111,4.125 3.188,3.201 3.188,2.062C3.188,0.924 4.111,0 5.25,0C6.39,0 7.312,0.924 7.312,2.062C7.312,3.201 6.39,4.125 5.25,4.125M10.5,4.125C9.361,4.125 8.438,3.201 8.438,2.062C8.438,0.924 9.361,0 10.5,0C11.64,0 12.562,0.924 12.562,2.062C12.562,3.201 11.64,4.125 10.5,4.125M15.75,4.125C14.611,4.125 13.687,3.201 13.687,2.062C13.687,0.924 14.611,0 15.75,0C16.89,0 17.812,0.924 17.812,2.062C17.812,3.201 16.89,4.125 15.75,4.125M-5.25,4.125C-4.11,4.125 -3.188,3.201 -3.188,2.062C-3.188,0.924 -4.11,0 -5.25,0C-6.389,0 -7.313,0.924 -7.313,2.062C-7.313,3.201 -6.389,4.125 -5.25,4.125"/>
                    </g>
                </g>
                <g transform="matrix(-1,0,0,1,1242,-395.282)">
                    <rect x="531" y="545.391" width="180" height="304.5" style="fill:white;"/>
                </g>
                <g>
                    <clipPath id="_clip1">
                        <rect x="531" y="149.792" width="180" height="27.971" clip-rule="nonzero"/>
                    </clipPath>
                    <g clip-path="url(#_clip1)">
                        <g transform="matrix(-1,0,0,-1,621,163.293)">
                            <rect x="-90" y="-13.5" width="180" height="27" style="fill:rgb(234,236,237);"/>
                            <path d="M90,-13.5L90,13.5L-90,13.5L-90,-13.5L90,-13.5ZM89,-12.5L-89,-12.5C-89,-12.5 -89,12.5 -89,12.5L89,12.5L89,-12.5Z" style="fill:rgb(209,212,214);"/>
                        </g>
                        <g transform="matrix(1,0,0,1,-2518.37,36.1421)">
                            <g transform="matrix(1.5,0,0,1,-1535.75,-0.25)">
                                <path d="M3164.33,124.75C3164.06,124.75 3163.83,124.414 3163.83,124C3163.83,123.586 3164.06,123.25 3164.33,123.25L3171,123.25C3171.28,123.25 3171.5,123.586 3171.5,124C3171.5,124.414 3171.28,124.75 3171,124.75L3164.33,124.75Z" style="fill:rgb(97,97,97);"/>
                            </g>
                            <g transform="matrix(1.5,0,0,1,-1535.75,3.75)">
                                <path d="M3164.33,124.75C3164.06,124.75 3163.83,124.414 3163.83,124C3163.83,123.586 3164.06,123.25 3164.33,123.25L3171,123.25C3171.28,123.25 3171.5,123.586 3171.5,124C3171.5,124.414 3171.28,124.75 3171,124.75L3164.33,124.75Z" style="fill:rgb(97,97,97);"/>
                            </g>
                            <g transform="matrix(1.5,0,0,1,-1535.75,7.75)">
                                <path d="M3164.33,124.75C3164.06,124.75 3163.83,124.414 3163.83,124C3163.83,123.586 3164.06,123.25 3164.33,123.25L3171,123.25C3171.28,123.25 3171.5,123.586 3171.5,124C3171.5,124.414 3171.28,124.75 3171,124.75L3164.33,124.75Z" style="fill:rgb(97,97,97);"/>
                            </g>
                        </g>
                        <g transform="matrix(1,0,0,1,-2694,37.1346)">
                            <path d="M3235.56,127.75L3238.52,130.712C3238.82,131.005 3238.82,131.48 3238.52,131.773C3238.23,132.066 3237.76,132.066 3237.46,131.773L3233.22,127.53C3232.93,127.237 3232.93,126.763 3233.22,126.47L3237.46,122.227C3237.76,121.934 3238.23,121.934 3238.52,122.227C3238.82,122.52 3238.82,122.995 3238.52,123.288C3238.52,123.288 3236.64,125.165 3235.56,126.25L3243.25,126.25C3243.66,126.25 3244,126.586 3244,127C3244,127.414 3243.66,127.75 3243.25,127.75L3235.56,127.75Z" style="fill:rgb(97,97,97);"/>
                        </g>
                    </g>
                </g>
                <g transform="matrix(0.993976,0,0,1,701.949,362.499)">
                    <path d="M0,26L-161.72,26C-162.902,26 -163.86,25.042 -163.86,23.86L-163.86,2.14C-163.86,0.958 -162.902,0 -161.72,0L0,0C1.182,0 2.14,0.958 2.14,2.14L2.14,23.86C2.14,25.042 1.182,26 0,26" style="fill:rgb(200,16,46);fill-rule:nonzero;"/>
                </g>
                <g transform="matrix(0.993976,0,0,1,701.949,327.642)">
                    <path d="M0,26L-161.72,26C-162.902,26 -163.86,25.042 -163.86,23.86L-163.86,2.14C-163.86,0.958 -162.902,0 -161.72,0L0,0C1.182,0 2.14,0.958 2.14,2.14L2.14,23.86C2.14,25.042 1.182,26 0,26" style="fill:rgb(92,102,112);fill-rule:nonzero;"/>
                </g>
                <g>
                    <clipPath id="_clip2">
                        <rect x="539.076" y="186.34" width="165" height="26" clip-rule="nonzero"/>
                    </clipPath>
                    <g clip-path="url(#_clip2)">
                        <g>
                            <clipPath id="_clip3">
                                <rect x="539.076" y="186.34" width="165" height="26" clip-rule="nonzero"/>
                            </clipPath>
                            <g clip-path="url(#_clip3)">
                                <g transform="matrix(0,25,22,0,621.576,186.84)">
                                    <path d="M1,3.636L1,-3.636C1,-3.687 0.964,-3.727 0.92,-3.727L0.08,-3.727C0.036,-3.727 0,-3.687 0,-3.636L0,3.636C0,3.687 0.036,3.727 0.08,3.727L0.92,3.727C0.964,3.727 1,3.687 1,3.636Z" style="fill:url(#_Linear4);fill-rule:nonzero;stroke:rgb(187,187,187);stroke-width:0.04px;"/>
                                </g>
                            </g>
                        </g>
                        <g transform="matrix(1,0,0,-1,690.576,201.84)">
                            <path d="M0,4L6,4L3.001,0L0,4Z" style="fill:rgb(119,119,119);fill-rule:nonzero;"/>
                        </g>
                    </g>
                </g>
                <g>
                    <clipPath id="_clip5">
                        <rect x="539.076" y="257.135" width="165" height="26" clip-rule="nonzero"/>
                    </clipPath>
                    <g clip-path="url(#_clip5)">
                        <g>
                            <clipPath id="_clip6">
                                <rect x="539.076" y="257.135" width="165" height="26" clip-rule="nonzero"/>
                            </clipPath>
                            <g clip-path="url(#_clip6)">
                                <g transform="matrix(0,25,22,0,621.576,257.635)">
                                    <path d="M1,3.636L1,-3.636C1,-3.687 0.964,-3.727 0.92,-3.727L0.08,-3.727C0.036,-3.727 0,-3.687 0,-3.636L0,3.636C0,3.687 0.036,3.727 0.08,3.727L0.92,3.727C0.964,3.727 1,3.687 1,3.636Z" style="fill:url(#_Linear7);fill-rule:nonzero;stroke:rgb(187,187,187);stroke-width:0.04px;"/>
                                </g>
                            </g>
                        </g>
                        <g transform="matrix(1,0,0,-1,690.576,272.635)">
                            <path d="M0,4L6,4L3.001,0L0,4Z" style="fill:rgb(119,119,119);fill-rule:nonzero;"/>
                        </g>
                    </g>
                </g>
                <g>
                    <clipPath id="_clip8">
                        <rect x="539.076" y="291.382" width="165" height="26" clip-rule="nonzero"/>
                    </clipPath>
                    <g clip-path="url(#_clip8)">
                        <g>
                            <clipPath id="_clip9">
                                <rect x="539.076" y="291.382" width="165" height="26" clip-rule="nonzero"/>
                            </clipPath>
                            <g clip-path="url(#_clip9)">
                                <g transform="matrix(1,0,0,-1,701.446,291.882)">
                                    <path d="M0,-25L-159.74,-25C-160.916,-25 -161.87,-24.046 -161.87,-22.87L-161.87,-2.13C-161.87,-0.954 -160.916,0 -159.74,0L0,0C1.176,0 2.13,-0.954 2.13,-2.13L2.13,-22.87C2.13,-24.046 1.176,-25 0,-25Z" style="fill:white;fill-rule:nonzero;stroke:rgb(187,187,187);stroke-width:1px;"/>
                                </g>
                            </g>
                        </g>
                        <g transform="matrix(1,0,0,-1,701.444,291.882)">
                            <path d="M0,-25L-22.868,-25L-22.868,0L0,0C1.177,0 2.132,-0.955 2.132,-2.132L2.132,-22.868C2.132,-24.045 1.177,-25 0,-25Z" style="fill:white;fill-rule:nonzero;stroke:rgb(187,187,187);stroke-width:1px;"/>
                        </g>
                    </g>
                </g>
                <g transform="matrix(1,0,0,1,0,-391.751)">
                    <path d="M697.324,700.59L696.902,700.59L696.902,691.161L697.324,691.161L697.324,700.59ZM696.694,700.584L696.48,700.584L696.48,691.162L696.694,691.162L696.694,700.584ZM696.272,700.584L695.643,700.584L695.643,691.162L696.272,691.162L696.272,700.584ZM695.007,700.584L694.585,700.584L694.585,691.162L695.007,691.162L695.007,700.584ZM694.377,700.584L693.955,700.584L693.955,691.162L694.377,691.162L694.377,700.584ZM693.533,700.584L693.111,700.584L693.111,691.162L693.533,691.162L693.533,700.584ZM692.69,700.584L692.268,700.584L692.268,691.162L692.69,691.162L692.69,700.584ZM691.638,700.584L691.216,700.584L691.216,691.162L691.638,691.162L691.638,700.584ZM690.587,700.584L690.379,700.584L690.379,691.162L690.587,691.162L690.587,700.584ZM690.165,700.584L689.957,700.584L689.957,691.162L690.165,691.162L690.165,700.584ZM689.743,700.584L689.535,700.584L689.535,691.162L689.743,691.162L689.743,700.584ZM688.899,700.584L688.484,700.584L688.484,691.162L688.899,691.162L688.899,700.584ZM687.848,700.584L687.64,700.584L687.64,691.162L687.848,691.162L687.848,700.584ZM686.797,700.584L686.589,700.584L686.589,691.162L686.797,691.162L686.797,700.584ZM686.167,700.584L685.953,700.584L685.953,691.162L686.167,691.162L686.167,700.584ZM685.745,700.59L685.323,700.59L685.323,691.161L685.745,691.161L685.745,700.59Z" style="fill-rule:nonzero;"/>
                </g>
                <g transform="matrix(1,0,0,1,531,248.5)">
                    <path d="M0,0L180,0" style="fill:none;fill-rule:nonzero;stroke:rgb(221,221,221);stroke-width:1px;"/>
                </g>
                <g>
                    <clipPath id="_clip10">
                        <rect x="538.577" y="228.833" width="13" height="13" clip-rule="nonzero"/>
                    </clipPath>
                    <g clip-path="url(#_clip10)">
                        <g transform="matrix(1,0,0,-1,549.077,229.333)">
                            <path d="M0,-12L-8,-12C-9.105,-12 -10,-11.105 -10,-10L-10,-2C-10,-0.895 -9.105,0 -8,0L0,0C1.105,0 2,-0.895 2,-2L2,-10C2,-11.105 1.105,-12 0,-12Z" style="fill:white;fill-rule:nonzero;stroke:rgb(153,153,153);stroke-width:1px;"/>
                        </g>
                    </g>
                </g>
                <g transform="matrix(1,0,0,1,531,221.5)">
                    <path d="M0,0L180,0" style="fill:none;fill-rule:nonzero;stroke:rgb(221,221,221);stroke-width:1px;"/>
                </g>
                <g transform="matrix(1,0,0,1,-0.0860296,0)">
                    <text x="592.065px" y="167.115px" style="font-family:'Roboto-Regular', 'Roboto';font-size:10px;fill:rgb(51,51,51);">Mov<tspan x="611.204px " y="167.115px ">e</tspan> Meters</text>
                </g>
                <g transform="matrix(1,0,0,1,-0.497565,0.668794)">
                    <g transform="matrix(1.0122,0,0,1,-7.44685,0)">
                        <text x="610.397px" y="378.384px" style="font-family:'Roboto-Regular', 'Roboto';font-size:10px;fill:white;fill-opacity:0.9;">Done</text>
                    </g>
                </g>
                <g transform="matrix(1,0,0,1,-0.773976,0.668794)">
                    <g transform="matrix(1.0122,0,0,1,-7.25018,0)">
                        <text x="594.277px" y="343.527px" style="font-family:'Roboto-Regular', 'Roboto';font-size:10px;fill:white;fill-opacity:0.9;">Add Another</text>
                    </g>
                </g>
                <g transform="matrix(1,0,0,1,1,0.439413)">
                    <g transform="matrix(10,0,0,10,655.695,202.46)">
                    </g>
                    <text x="546.576px" y="202.46px" style="font-family:'Roboto-Regular', 'Roboto';font-size:10px;fill:rgb(64,64,64);">Meter or Car<tspan x="602.161px " y="202.46px ">t</tspan>on<tspan x="616.548px " y="202.46px "> </tspan>or Pallet</text>
                </g>
                <g transform="matrix(1,0,0,1,1,0.439274)">
                    <g transform="matrix(10,0,0,10,615.174,273.255)">
                    </g>
                    <text x="546.576px" y="273.255px" style="font-family:'Roboto-Regular', 'Roboto';font-size:10px;fill:rgb(64,64,64);">Select Location</text>
                </g>
                <g transform="matrix(1,0,0,1,2.4995,0.214321)">
                    <text x="545.077px" y="307.727px" style="font-family:'Roboto-Regular', 'Roboto';font-size:10px;fill:rgb(119,119,119);">Scan or enter serial #</text>
                </g>
                <g transform="matrix(1,0,0,1,0,0.581988)">
                    <g transform="matrix(10,0,0,10,586.644,238.06)">
                    </g>
                    <text x="558.628px" y="238.06px" style="font-family:'Roboto-Regular', 'Roboto';font-size:10px;fill:rgb(64,64,64);">Range</text>
                </g>
            </g>
        </g>
    </g>
    <defs>
        <linearGradient id="_Linear4" x1="0" y1="0" x2="1" y2="0" gradientUnits="userSpaceOnUse" gradientTransform="matrix(1,0,0,-1,0,-3.55271e-15)"><stop offset="0" style="stop-color:white;stop-opacity:1"/><stop offset="1" style="stop-color:rgb(238,238,238);stop-opacity:1"/></linearGradient>
        <linearGradient id="_Linear7" x1="0" y1="0" x2="1" y2="0" gradientUnits="userSpaceOnUse" gradientTransform="matrix(1,0,0,-1,0,-3.55271e-15)"><stop offset="0" style="stop-color:white;stop-opacity:1"/><stop offset="1" style="stop-color:rgb(238,238,238);stop-opacity:1"/></linearGradient>
    </defs>
</svg>
